/* XPM */
static char *e97315aefa0a4843e05b09e001771f94YoiZE1x3r0WQieNC[] = {
/* columns rows colors chars-per-pixel */
"64 64 24 1 ",
"  c None",
". c #DD1E25",
"X c #DD1F25",
"o c #DE1E25",
"O c #DE1F25",
"+ c #DD1E26",
"@ c #DD1F26",
"# c #DE1E26",
"$ c #DE1F26",
"% c #DD2229",
"& c #DE2228",
"* c #DE2229",
"= c #DE9348",
"- c #DF9348",
"; c #DE9349",
": c #DF9349",
"> c #DE9448",
", c #DF9448",
"< c #DE9449",
"1 c #DF9449",
"2 c #DEDFDF",
"3 c #DFDFDF",
"4 c #DEE0E0",
"5 c #DFE0E0",
/* pixels */
"                                                                ",
"                                                                ",
"                                                                ",
"                                                                ",
"                                                                ",
"                                                                ",
"                                                                ",
"                                                111111111       ",
"                                                1111111=1       ",
"                                                111=11111       ",
"                                                =11=1=111       ",
"                                                11==1==11       ",
"                                       11111=111111111111       ",
"                                       11111111111111111=       ",
"                                       1111=1111111111===       ",
"                                       11====111111=1=111       ",
"                              111==1=11    ===1=                ",
"                              111111111    11111                ",
"                              111111111    11111                ",
"                              11111====    11=11                ",
"                              111111111    11111                ",
"                         11111             1111=                ",
"                         11111             11111                ",
"                         =1=11             ===1=                ",
"                         11==1             ==1=1                ",
"            #########1111              111=                     ",
"            #########1111              11==                     ",
"            #########11==              11==                     ",
"            #########111=              1===                     ",
"            #########1111              1=1=                     ",
"       ##############1111#####         111=                     ",
"       ##############111=#####         1111                     ",
"       ##############1111#####         1111                     ",
"       ##############=111#####         =1==                     ",
"       #######################    #####11==#####                ",
"       #######################    #####11==#####                ",
"       #######################    #####11==#####                ",
"       #######################    #####1===#####                ",
"       #######################    #####=1==#####                ",
"       ####%3555#########     #########1111#########            ",
"       ####%3553#########     #########1111#########            ",
"       ####%3353#########     #########11==#########            ",
"       ####%5553#########     #########11==#########            ",
"            #############     ######################            ",
"            #############     ######################            ",
"            #############     ######################            ",
"            #############     ######################            ",
"            #############     ######################            ",
"                              ####55553#############            ",
"                              ####35533#############            ",
"                              ####55353#############            ",
"                              ####55555#############            ",
"                                  %%%%%#########                ",
"                                  ##############                ",
"                                  ##############                ",
"                                  ##############                ",
"                                  ##############                ",
"                                                                ",
"                                                                ",
"                                                                ",
"                                                                ",
"                                                                ",
"                                                                ",
"                                                                "
};
