/* XPM */
static char *fa0ed9ddb6df49c6858aa908dbdff7c5mVex2usTMZJ3uZx9[] = {
/* columns rows colors chars-per-pixel */
"64 64 224 2 ",
"   c None",
".  c gray13",
"X  c #222222",
"o  c #232323",
"O  c gray14",
"+  c #252525",
"@  c gray15",
"#  c #272727",
"$  c #282828",
"%  c gray16",
"&  c #2A2A2A",
"*  c gray17",
"=  c #2C2C2C",
"-  c #2D2D2D",
";  c gray18",
":  c #2F2F2F",
">  c gray19",
",  c #313131",
"<  c #323232",
"1  c gray20",
"2  c #343434",
"3  c #353535",
"4  c gray21",
"5  c #373737",
"6  c gray22",
"7  c #393939",
"8  c #3A3A3A",
"9  c gray23",
"0  c #3C3C3C",
"q  c gray24",
"w  c #3E3E3E",
"e  c #3F3F3F",
"r  c gray25",
"t  c #414141",
"y  c gray26",
"u  c #434343",
"i  c #444444",
"p  c gray27",
"a  c #464646",
"s  c gray28",
"d  c #484848",
"f  c #494949",
"g  c gray29",
"h  c #4B4B4B",
"j  c #4C4C4C",
"k  c gray30",
"l  c #4E4E4E",
"z  c gray31",
"x  c #505050",
"c  c #515151",
"v  c gray32",
"b  c #535353",
"n  c gray33",
"m  c #555555",
"M  c #565656",
"N  c gray34",
"B  c #585858",
"V  c gray35",
"C  c #5A5A5A",
"Z  c #5B5B5B",
"A  c gray36",
"S  c #5D5D5D",
"D  c gray37",
"F  c #5F5F5F",
"G  c #606060",
"H  c gray38",
"J  c #626262",
"K  c gray39",
"L  c #646464",
"P  c #656565",
"I  c gray40",
"U  c #676767",
"Y  c #686868",
"T  c DimGray",
"R  c #6A6A6A",
"E  c gray42",
"W  c #6C6C6C",
"Q  c #6D6D6D",
"!  c gray43",
"~  c #6F6F6F",
"^  c gray44",
"/  c #717171",
"(  c #727272",
")  c gray45",
"_  c #747474",
"`  c gray46",
"'  c #767676",
"]  c #777777",
"[  c gray47",
"{  c #797979",
"}  c gray48",
"|  c #7B7B7B",
" . c #7C7C7C",
".. c gray49",
"X. c #7E7E7E",
"o. c gray50",
"O. c #808080",
"+. c #818181",
"@. c gray51",
"#. c #838383",
"$. c #848484",
"%. c gray52",
"&. c #868686",
"*. c gray53",
"=. c #888888",
"-. c #898989",
";. c gray54",
":. c #8B8B8B",
">. c gray55",
",. c #8D8D8D",
"<. c #8E8E8E",
"1. c gray56",
"2. c #909090",
"3. c gray57",
"4. c #929292",
"5. c #939393",
"6. c gray58",
"7. c #959595",
"8. c gray59",
"9. c #979797",
"0. c #989898",
"q. c gray60",
"w. c #9A9A9A",
"e. c #9B9B9B",
"r. c gray61",
"t. c #9D9D9D",
"y. c gray62",
"u. c #9F9F9F",
"i. c #A0A0A0",
"p. c gray63",
"a. c #A2A2A2",
"s. c gray64",
"d. c #A4A4A4",
"f. c #A5A5A5",
"g. c gray65",
"h. c #A7A7A7",
"j. c gray66",
"k. c #A9A9A9",
"l. c #AAAAAA",
"z. c gray67",
"x. c #ACACAC",
"c. c gray68",
"v. c #AEAEAE",
"b. c #AFAFAF",
"n. c gray69",
"m. c #B1B1B1",
"M. c #B2B2B2",
"N. c gray70",
"B. c #B4B4B4",
"V. c gray71",
"C. c #B6B6B6",
"Z. c #B7B7B7",
"A. c gray72",
"S. c #B9B9B9",
"D. c gray73",
"F. c #BBBBBB",
"G. c #BCBCBC",
"H. c gray74",
"J. c gray",
"K. c gray75",
"L. c #C0C0C0",
"P. c #C1C1C1",
"I. c gray76",
"U. c #C3C3C3",
"Y. c gray77",
"T. c #C5C5C5",
"R. c #C6C6C6",
"E. c gray78",
"W. c #C8C8C8",
"Q. c gray79",
"!. c #CACACA",
"~. c #CBCBCB",
"^. c gray80",
"/. c #CDCDCD",
"(. c #CECECE",
"). c gray81",
"_. c #D0D0D0",
"`. c gray82",
"'. c #D2D2D2",
"]. c LightGray",
"[. c gray83",
"{. c #D5D5D5",
"}. c gray84",
"|. c #D7D7D7",
" X c #D8D8D8",
".X c gray85",
"XX c #DADADA",
"oX c gray86",
"OX c gainsboro",
"+X c #DDDDDD",
"@X c gray87",
"#X c #DFDFDF",
"$X c gray88",
"%X c #E1E1E1",
"&X c #E2E2E2",
"*X c gray89",
"=X c #E4E4E4",
"-X c gray90",
";X c #E6E6E6",
":X c #E7E7E7",
">X c gray91",
",X c #E9E9E9",
"<X c #EAEAEA",
"1X c gray92",
"2X c #ECECEC",
"3X c gray93",
"4X c #EEEEEE",
"5X c #EFEFEF",
"6X c gray94",
"7X c #F1F1F1",
"8X c gray95",
"9X c #F3F3F3",
"0X c #F4F4F4",
"qX c gray96",
"wX c #F6F6F6",
"eX c gray97",
"rX c #F8F8F8",
"tX c #F9F9F9",
"yX c gray98",
"uX c #FBFBFB",
"iX c gray99",
"pX c #FDFDFD",
"aX c #FEFEFE",
"sX c white",
/* pixels */
"                                                                $ $ $ $                                                         ",
"                                                                < = = <                                                         ",
"                                            = = = < 2 2 7 7 7 7 7 7 7 7 7 7 7 2 < < < =                                         ",
"                                            < < 2 2 7 7 0 0 y y y y y y y 0 0 7 7 2 2 2                                         ",
"                                    < < 2 2 2 7 0 y y i h h l l l l l l h h h i y y 0 7 7 2 < <                                 ",
"                                    2 2 7 0 0 y i h l x m m m B B B B B m m x x l h i i y 0 2 2                                 ",
"                        + $ $ = < 2 7 0 y i h l x m B F G G G L L L L L G G F F B m x l h i y 0 7 2 < =                         ",
"                        $ $ = < 2 7 0 i h l m B F G L Y Y ! ( ( ( ( ( ( ! ! Y Y L G F B m l h i y 7 2 <                         ",
"                    + $ $ = < 2 7 y h l m B F L Y ! ( ` ` } ..............} } ` ( ! Y L G B x l h y 7 2 2 <                     ",
"                    $ $ = < 2 0 y h x B F L Y ( ` } ..+.&.&.;.;.;.,.;.;.;.&.&.+...} ` ( Y L F m x h y 0 2 2                     ",
"                    = = < 7 0 i l m B G Y ( ` ..+.&.;.,.4.4.8.8.8.q.q.8.8.4.4.,.;.&.+...` ! Y G B m l i 0 7 2 <                 ",
"                    = < 7 0 i l m F L ! ` } +.&.,.4.8.q.u.u.a.a.a.a.a.a.a.u.u.q.8.4.,.&.+.} ( ! L F m l i 0 7 2                 ",
"                $ = < 2 0 i x B F L ( ` ..&.,.4.q.u.a.f.j.j.x.x.x.x.x.x.x.j.f.f.a.u.8.4.;.&...` ! L F m l i 0 7 2 <             ",
"                = < 2 0 i l B G Y ( } +.;.4.8.u.a.f.j.x.M.V.V.V.S.S.S.V.V.V.M.x.j.f.a.u.8.4.;.+.} ( Y F m l i 0 2 <             ",
"            + $ = 2 0 i l m G Y ( } +.,.4.q.a.f.x.M.V.S.J.J.L.L.L.L.L.L.L.J.S.S.V.M.x.f.a.q.4.;.+.} ( Y F m l y 7 2 = =         ",
"            $ $ < 7 y h m F Y ( } &.,.8.u.a.j.M.V.S.J.L.T.~.~.~.~././.~.~.T.T.L.J.S.V.M.j.a.u.8.,.&.} ( L F x h y 7 < =         ",
"            $ = 2 0 i x F L ( } &.,.8.u.f.x.M.S.J.L.T.~./.`.`.{.{.{.{.{.`.`./.~.T.L.J.S.M.x.f.u.8.,.+.} ! L B x i 0 2 <         ",
"            = < 7 i l B G ! } +.,.8.u.f.x.V.J.L.T./.`.{.{. X+X+X+X+X+X+X+X X{.`.`./.T.L.S.V.x.f.u.8.;.+.` ! G B l i 7 2         ",
"        + $ < 2 y h m G Y ` ..;.8.u.f.x.V.J.T.~./.{. X+X+X*X=X=X=X=X=X=X=X*X+X+X X{.`.~.L.J.V.x.f.u.4.;...` Y F m h y 7 < =     ",
"        $ = 2 0 i x B L ( ..&.4.q.f.x.V.J.T.~.`.{.+X*X=X=X<X4X4X4X4X4X4X<X<X=X=X*X X{.`.~.T.J.V.x.f.q.4.&.} ( L B l i 7 < =     ",
"        = < 7 y h m G ! ` +.,.q.a.j.V.J.T.~.`. X+X*X=X<X4X7X7X0X0X0X0X0X0X7X4X4X=X*X+X{.`.~.L.J.V.j.a.8.,.+.` Y G m h 0 2 <     ",
"        = 2 7 i l B L ( ..;.4.u.j.M.S.L.~.`. X+X=X<X4X7X0X0XyXyXyXyXiXyXyXyX0X7X4X<X=X+X X`.~.L.S.M.f.u.4.;...( L B l y 7 2     ",
"        < 2 0 h x F Y ` +.,.q.a.x.V.L.~.`.{.+X=X<X7X0X0XyXyXiXiXiXiXiXiXiXiXyXyX7X4X<X=X+X{.`.~.J.V.x.a.q.,.+.` Y F x h 0 7     ",
"        2 7 y l m G ! } &.4.u.j.M.J.T./.{.+X*X<X7X0XyXyXiXiXiXiXiXiXiXiXiXiXiXyX0X7X4X<X*X+X{./.T.S.M.j.u.4.&.} ! G m h y 7     ",
"    $ = < 7 i l B L ` +.,.8.a.x.V.L.~.`. X*X<X4X0XyXyXiXiXiXiXiXiXiXiXiXiXiXiXiXyX0X7X4X<X*X X`.~.L.V.x.a.8.;...( L B l i 0 2 < ",
"    $ = 2 0 i x F Y ` +.,.q.f.M.S.T./.{.+X=X4X7X0XyXiXiXiXiXiXiXiXiXiXiXiXiXiXiXiXyX0X7X4X=X+X{./.T.S.M.f.q.,.+.` Y F x i 0 2 < ",
". + + = 2 0 h m G ! } &.4.u.j.V.J.~.`. X*X<X7X0XyXiXiXiXiXiXiXiXiXiXiXiXiXiXiXiXiXiXyX0X7X<X*X X`.T.J.V.j.u.4.&.} ! G m h 0 2 = ",
". + + = 2 y h m G ! ..;.8.a.x.V.L.~.{.+X=X4X7XyXiXiXiXiXiXiXiXiXiXiXiXiXiXiXiXiXiXiXiXyX7X4X=X+X`.~.L.V.j.a.8.;.} ! G B h 0 2 = ",
". + $ = 2 y l B L ( ..;.8.a.x.S.L./.{.+X<X4X0XyXiXiXiXiXiXiXiXiXiXiXiXiXiXiXiXiXiXiXiXyX0X4X=X+X{./.L.S.x.a.8.;...( L B l y 2 < ",
". + $ = 7 y l B L ( ..,.q.f.M.S.T./. X*X<X7XyXyXiXiXiXiXiXiXiXiXiXiXiXiXiXiXiXiXiXiXiXiX0X7X<X*X{./.T.S.x.a.8.;...( L B l y 2 < ",
". + $ = 7 y l B L ` +.,.q.f.M.S.T./. X*X<X7XyXiXiXiXiXiXiXiXiXiXiXiXiXiXiXiXiXiXiXiXiXiX0X7X<X*X X/.T.S.M.f.q.,.+.( L B l y 2 < ",
". + $ = 7 y l B L ` +.,.q.f.M.J.T.`. X*X<X7XyXiXiXiXiXiXiXiXiXiXiXiXiXiXiXiXiXiXiXiXiXyX0X7X<X*X X`.T.S.M.f.q.,.+.` L B l y 2 < ",
". + $ = 7 y l B L ` +.,.q.f.M.J.T.`. X*X<X7X0XyXiXiXiXiXiXiXiXiXiXiXiXiXiXiXiXiXiXiXiXiXyX7X<X*X X/.T.S.M.f.q.,.+.` L B l y 2 < ",
". + $ = 7 y l B L ( +.,.q.f.M.S.T./. X*X<X7X0XyXiXiXiXiXiXiXiXiXiXiXiXiXiXiXiXiXiXiXiXiX0X7X<X*X X/.T.S.M.f.q.,.+.( L B l y 2 < ",
". . + = 2 y l B L ( +.,.q.f.M.S.T./.{.*X<X4X0XyXiXiXiXiXiXiXiXiXiXiXiXiXiXiXiXiXiXiXiXyX0X4X=X+X{./.L.S.x.f.q.,...( L B l y 2 < ",
". + + = 2 y h B L ( ..;.8.a.x.S.L./.{.+X=X4X0XyXiXiXiXiXiXiXiXiXiXiXiXiXiXiXiXiXiXiXiXyX7X4X=X+X{.~.L.V.x.a.8.;...( G m h y 2 = ",
"    $ = 2 0 h m G ! ..;.8.a.j.V.L.~.`. X*X<X7XyXiXiXiXiXiXiXiXiXiXiXiXiXiXiXiXiXiXiXyX0X7X<X*X X`.~.J.V.j.u.8.;.} ! G m h 0 < = ",
"    $ = 2 0 h m G ! } &.4.u.j.M.J.T.`. X*X<X4X0XyXiXiXiXiXiXiXiXiXiXiXiXiXiXiXiXiXiXyX0X4X=X*X X/.T.J.M.f.u.4.&.} Y F x i 0 < = ",
"        2 7 i x F Y ` +.,.q.f.M.S.L./.{.+X=X<X7X0XyXiXiXiXiXiXiXiXiXiXiXiXiXiXiXiXyX0X7X<X=X+X{.~.L.S.x.f.q.,.+.` Y F x i 7 < = ",
"        2 7 y l B L ( ..;.8.a.j.V.J.~.`. X+X=X4X0XyXyXiXiXiXiXiXiXiXiXiXiXiXiXiXyX0X7X4X=X+X X/.T.J.V.j.a.8.;...( L B l y 7 < = ",
"        < 2 0 h m G ! } &.4.u.f.M.S.L.~.`. X*X<X4X7X0XyXyXiXiXiXiXiXiXiXiXiXiXyX0X7X4X<X*X X`.~.L.S.M.f.q.,.+.` Y G m h 0 7     ",
"        < 2 0 i x F Y ( ..;.8.a.j.V.J.T./.{.+X*X<X4X7X0XyXyXyXiXiXiXiXiXyXyXyX0X7X4X<X*X+X{./.T.J.V.j.a.8.;...( L B x i 0 2     ",
"        = < 7 y l B G ! } &.4.q.f.x.V.L.~./.{.+X*X=X4X7X7X0X0XyXyXyXyXyXyX0X7X7X<X=X*X+X{./.~.L.V.x.f.q.,.&.} ! G m l y 7 <     ",
"        $ = 2 0 h x F Y ` ..;.8.u.j.M.S.L.~./.{. X*X=X<X4X4X7X7X0X0X0X7X7X4X4X<X=X*X+X{./.~.L.S.M.j.u.8.;...( Y F x i 0 2 <     ",
"            2 7 y l B G ! } +.,.8.a.j.M.S.L.~./.{. X+X*X=X<X<X<X4X4X4X4X<X=X=X*X+X X`./.~.L.S.M.j.a.8.,.+.} ! G m l y 7 < =     ",
"            < 2 0 i x F L ( ..&.4.q.a.j.M.S.L.T./.`.{. X+X+X*X*X=X=X=X*X*X+X+X X{.`.~.T.L.S.M.j.a.q.,.&.} ( L B x i 0 2 = $     ",
"            = < 7 y h m F Y ` ..&.4.q.a.j.M.S.J.L.~./.`.{.{. X X X X X X X{.{.`./.~.L.J.V.M.j.a.q.4.&...( Y F m h y 7 2         ",
"            $ = 2 0 i l B G ! ` ..;.4.q.a.j.x.V.S.L.T.~.~././.`.`.`.`.`.`./.~.T.T.L.S.V.x.j.a.q.4.;...` Y G m l i 0 2 <         ",
"            $ $ < 2 y h x B G ! ` ..;.4.q.u.f.x.M.V.S.J.L.T.T.~.~.~.~.T.T.T.L.J.S.V.M.x.f.u.8.4.&...` ! G B x i 0 2 = =         ",
"            + $ = < 7 y h x B L ! ` +.&.,.8.u.a.j.x.M.V.V.S.J.J.J.J.J.J.J.S.V.V.M.x.f.a.u.8.,.&...` ! L B x h y 7 < = $         ",
"                $ = 2 7 y h x B G ! ` ..&.;.4.q.u.a.f.j.x.M.M.M.V.V.V.M.M.M.x.j.f.a.u.q.4.;.+...` ! G B x h y 7 < = $ +         ",
"                $ = = 2 7 y h x B G Y ( } +.&.,.4.q.u.a.a.f.f.j.j.j.j.j.f.f.a.u.u.q.4.,.&.+.} ( Y G B x h y 7 < = $ + +         ",
"                    = = 2 7 y h x B G Y ! ` ..+.&.;.,.4.8.q.u.u.u.u.u.u.q.q.8.4.,.;.&.+.} ` ! L G B x h y 7 < = $ +             ",
"                    $ = = 2 7 y h l m F L Y ( ` } ..+.&.;.,.,.4.4.4.4.4.,.,.;.&.+...} ` ( Y L F m l h y 7 < = $ + +             ",
"                        = = < 7 0 i l x B F L Y ! ( ` } ..+.+.&.&.&.&.&.+.+...} ` ( ! Y L G B m l i y 7 < = $ $                 ",
"                        $ = = < 2 0 y h l m B F G L Y ! ( ` ` ` } } } } ` ` ( ! Y L G F B m l h y 0 7 < = $ + +                 ",
"                            $ = < 2 7 y i h l m B F F G L L Y Y Y Y Y Y Y L L G F F B x l h i 0 7 2 = $ $ +                     ",
"                            $ $ = < 2 7 0 y i h l x x m B B F F F F F F F B B m x x l h i y 7 2 2 < = $ + +                     ",
"                                        2 2 7 0 y i h h l l x x x x x x x l l h h i y 0 7 2 < <                                 ",
"                                        < < 2 7 7 7 0 0 y y i i i i i i i i y 0 0 7 7 2 2 < = =                                 ",
"                                                < < 2 2 7 7 7 7 0 0 0 7 7 7 7 2 < < < =                                         ",
"                                                = = = = < < < 2 2 2 2 2 < < < = = $ $ $                                         ",
"                                                    $ $ = = < < < < < < = = = $ $ +                                             ",
"                                                    $ $ $ $ = = = = = = = $ $ $ + +                                             "
};
