/* XPM */
static char *_d5809d2bf134cd4aa6fd73d951d4c4cN1REy7MhcYuGU3rZ[] = {
/* columns rows colors chars-per-pixel */
"50 84 245 2 ",
"   c None",
".  c #010C01",
"X  c #061703",
"o  c #320201",
"O  c #281007",
"+  c #0C2703",
"@  c #173606",
"#  c #122F07",
"$  c #352919",
"%  c #343714",
"&  c #3C3021",
"*  c #520907",
"=  c #6F0604",
"-  c #4B2A15",
";  c #4C2D18",
":  c #522D16",
">  c #55331C",
",  c #5A351C",
"<  c #5B361D",
"1  c #673B1C",
"2  c #703D18",
"3  c #5D3A21",
"4  c #4B352D",
"5  c #643E22",
"6  c #6D3A21",
"7  c #1E4606",
"8  c #244909",
"9  c #275807",
"0  c #355211",
"q  c #325D0A",
"w  c #286402",
"e  c #35670A",
"r  c #3B7506",
"t  c #3F6B11",
"y  c #4A5616",
"u  c #70481C",
"i  c #487E0A",
"p  c #466815",
"a  c #4A7613",
"s  c #547A15",
"d  c #536F12",
"f  c #6C7A1D",
"g  c #584026",
"h  c #664224",
"j  c #6B4325",
"k  c #6C4629",
"l  c #6E492D",
"z  c #734423",
"x  c #7B4A24",
"c  c #744C2B",
"v  c #7A4E2B",
"b  c #704827",
"n  c #7D522D",
"m  c #795928",
"M  c #795632",
"N  c #6D562F",
"B  c #53732C",
"V  c #78672A",
"C  c #6F6D2D",
"Z  c #6E5E4F",
"A  c #797451",
"S  c #514841",
"D  c #950700",
"F  c #8C110C",
"G  c #933B3A",
"H  c #A92F24",
"J  c #9B260C",
"K  c #81532D",
"L  c #89582C",
"P  c #945D2D",
"I  c #835631",
"U  c #845A34",
"Y  c #8B5C34",
"T  c #895D39",
"R  c #965C38",
"E  c #8D4631",
"W  c #A54F2F",
"Q  c #8C633A",
"!  c #946234",
"~  c #9A6534",
"^  c #93643A",
"/  c #96693D",
"(  c #9C6B3D",
")  c #9B6937",
"_  c #A36C39",
"`  c #A5723D",
"'  c #A77237",
"]  c #B2723C",
"[  c #C7553F",
"{  c #956942",
"}  c #9B6C42",
"|  c #946541",
" . c #9B714A",
".. c #8D6D51",
"X. c #A16E41",
"o. c #B26945",
"O. c #A57344",
"+. c #AB7642",
"@. c #AC7943",
"#. c #AC7B4B",
"$. c #A77649",
"%. c #B27D45",
"&. c #B37E4C",
"*. c #B37248",
"=. c #AB7E54",
"-. c #966A6B",
";. c #A77161",
":. c #D5594B",
">. c #CA5744",
",. c #CC614C",
"<. c #EA7968",
"1. c #4C8509",
"2. c #488606",
"3. c #55890B",
"4. c #599609",
"5. c #5D9312",
"6. c #578712",
"7. c #66980B",
"8. c #679A14",
"9. c #6E8D16",
"0. c #65A20C",
"q. c #6DA80C",
"w. c #71A80A",
"e. c #6BA214",
"r. c #78A718",
"t. c #7CB30F",
"y. c #79952C",
"u. c #788F37",
"i. c #7FA530",
"p. c #83B815",
"a. c #85BD0F",
"s. c #85872A",
"d. c #869F21",
"f. c #9BBB37",
"g. c #8CB12D",
"h. c #82831A",
"j. c #96C61B",
"k. c #95C321",
"l. c #A6C936",
"z. c #AED531",
"x. c #B5814D",
"c. c #B98447",
"v. c #AC8155",
"b. c #B58353",
"n. c #BB8652",
"m. c #BC8B5A",
"M. c #B88957",
"N. c #B89659",
"B. c #90AE4A",
"V. c #A8BC51",
"C. c #8E8A6E",
"Z. c #B68E67",
"A. c #BE9265",
"S. c #BA9874",
"D. c #AC9073",
"F. c #B1AE76",
"G. c #8E895A",
"H. c #C28B4C",
"J. c #C38F5A",
"K. c #C28B54",
"L. c #C4915C",
"P. c #CA945D",
"I. c #CA9252",
"U. c #CC9456",
"Y. c #C39462",
"T. c #CC9A65",
"R. c #CB9D69",
"E. c #C89663",
"W. c #D39D64",
"Q. c #D09E68",
"!. c #C79D73",
"~. c #D49F70",
"^. c #CFA16D",
"/. c #D3A26C",
"(. c #DCA66C",
"). c #CCA272",
"_. c #CDA47B",
"`. c #D6AA75",
"'. c #DCAC75",
"]. c #D5AC7C",
"[. c #DAAD79",
"{. c #D4A673",
"}. c #DDB27D",
"|. c #E1AE75",
" X c #E3B47B",
".X c #E6B379",
"XX c #E7AC6D",
"oX c #DB9467",
"OX c #BAD54A",
"+X c #B4CC4D",
"@X c #BDC07B",
"#X c #C9DB64",
"$X c #CFE363",
"%X c #99948C",
"&X c #A88B84",
"*X c #9AA88A",
"=X c #B9B5AE",
"-X c #BCB7AF",
";X c #C8A887",
":X c #DDB483",
">X c #DCB88B",
",X c #D9B995",
"<X c #CCAE88",
"1X c #E2B682",
"2X c #E5BA84",
"3X c #E4BD8B",
"4X c #EBBC84",
"5X c #E6BF96",
"6X c #C7B8A8",
"7X c #CEB7AB",
"8X c #C8CC8D",
"9X c #ECC38C",
"0X c #E9C08A",
"qX c #F1C58B",
"wX c #ECC592",
"eX c #EBC898",
"rX c #F3CC94",
"tX c #F2CD9B",
"yX c #F0C794",
"uX c #F5D19D",
"iX c #D5C5B6",
"pX c #D9D9A9",
"aX c #EBCBA3",
"sX c #E7CAA9",
"dX c #F1CFA4",
"fX c #EDD4AA",
"gX c #F6D4A4",
"hX c #F4D4AB",
"jX c #F7D8AA",
"kX c #F9DDB5",
"lX c #F9DFBA",
"zX c #F4DAB6",
"xX c #FAE2BB",
"cX c #CDCAC6",
"vX c #D8D3D2",
"bX c #FCE6C4",
"nX c #FDEACB",
"mX c #FCE8C8",
"MX c #E8E1D8",
"NX c #FEF3DD",
"BX c #FFF1D7",
"VX c #FEEED2",
"CX c #FEF5E2",
"ZX c #FFF9E8",
"AX c #EBEBEB",
/* pixels */
"                                                                          0.s i 9 r                 ",
"                                                                            a r                     ",
"                                                                            3.w                     ",
"                                                                            3.8                     ",
"                                                                            i                       ",
"                                                                  r.OX    5.e                       ",
"                                                                  r.l.g.  3.7                       ",
"                                                                    q.s 5.r                         ",
"                                                                      p 5.9                         ",
"                                                                      5.i 8   +X                    ",
"                                                                      5.9 i g.z.                    ",
"                                                                    e.r 9 2.w.w.                    ",
"                                                                    4.9                             ",
"                                                                  e.r                               ",
"                                                        r.OXV.    3.9                               ",
"                                                          k.g.  0.e                                 ",
"                                                          7.6.8.2.                                  ",
"                                                            a 4.w                                   ",
"                                                            0.r                                     ",
"                                                          w.4.                                      ",
"                                                          0.r                                       ",
"                                                        w.2.a f.#Xf.                                ",
"                                                      w.4.e 3.p.z.g.            !   P               ",
"                                                      0.e 9 i 7.q.          ! n ) ! )               ",
"                                                    q.1.            Y ~ %.@.~ _ ] c.                ",
"                                          r.OXV.    4.C  .} c     L } _.>X.XK.~ c.H.c.H.            ",
"                                            k.i.  q.d Z. Xm.I 1 z ..iX6X=X<X_ _ ] H.H.I.H.          ",
"                                            4.i 8.3.M E.&.Y v 1 Z cX%X$ $ C.Y.+.' ' c.H.I.n.^       ",
"                                              a 4.y l Q A.<XS. .6X=X$ S C.S.!.~ _ ~ P L _ c.n.U     ",
"                                              0.2.  h !.kXxXbXsX6X%XO %XiXaXA.m.XXn.!.Z.R P %.$.    ",
"                                          E.s.4.    Y.tXeXhXnXnX7X=XA D.hXbX:X4XR.iXcX-X;XL P #.T   ",
"                                        >X2Xs.2.    `.tX:XlXNXNXbXhXzXbXNXbXgX|.6X-Xg $ C.$.K ` }   ",
"                                      S.aXtXs.u.dXT.'.tX:XlXCXZXCXNXCXCXNXbXgX_.vXZ O Z ..b.x ! }   ",
"                                    sX>XwXuXN.S.gXK.'.uX1XeXVXZXZXCXCXCXNXnXyX<XcX& 4 AXS.M.x Y }   ",
"                                    fX2X(.0X{.A..X+.'.rX~.R 5XVXZXZXCXCXnXzX1X;XcX4 & &XA.v.z Y /   ",
"                                  $. X4XK.P.M.m.(.  T.qXo.= ;.aXlXNXCXNXbXdX2X].,X..N $.T.{ 1 Y Y   ",
"                                  R.W.P.x.Q n.(.P.  x..XW D &XMXsXtXzXmXnXmXxXjXrX:Xm.P.Y.j 1 I b   ",
"                                  b.R.M.f f /.T.N.  ^ /.W D G vXAXMXsXwX9XyXtXtXyXwX}.b.} - - , -   ",
"                                  | / V 1.V s.f.$Xf.  &.] D D E 7XAXAXMX7XD.| ^ ^ M.:XY.5 : < < :   ",
"            |                 r.V.  v 9.1.y 3.p.z.d.) ! ` J D D F G -.-.-.4 o o o ^ }.).b 5 ) } v 3 ",
"        Y.[.^.#.              j.OXf.  8.t 0 6.9.h.' c.' ) W H H F F F F = * o o 6 Y.:X).v v L.'. .v ",
"    E.m.[.wX2XJ.          ! N 7.a.8.s e.q V c.n.R.(.n.! ~ &.o.>.:.<.oX<.:.H * z m.].>XA.k I (.9X=.M ",
"    4XW.3XeX3XP.      Y _ L / V 4.2.a 8.B sXsXhXjXrX'.x.) ) n.*.,.,.:.:.>.[ o.m.].>X<X$.j X.|.:X| l ",
"  <XtXW.wXtX0XL.      %.%.2 z U   B s 6.C.ZXNXnXkXuX9X'.b.Y ! #.b.#.*.*.&.v.#.A.].].v.k K m.^. .c   ",
"Z.>XgX(.9XuX4XK.    +.H.` 1 : j M ,XB.i *XCXpXpXzXgX9X2X/.} I ( ( { { { ^ Y  .M.M.{ 3 > v { U c     ",
",XeXgX1X/.9XXX&.    c.c.!     : v.lXB.r *X8X#XOX@XgX9X2X[.m.! ( O.^ I c     v c 5   - ; < k         ",
"aXdX).Y.b.J.U.&.  +.n.@.K     - ).lXB.e C.g.l.z.F.gX9X1X`.M.Y ^ ^ c U l                             ",
"  _.!.eXgXwX.XK.  @.x.~ j     3 ].fXi.e B 7.k.V.fXtX4X}./.&.Y ! v c U h                             ",
"    hXbXkXjXqXJ.v %.O.n         '.eXi.9 0 B.8XjXgX9X1X`.E.O.I Y c T v <                             ",
"    lXbXlXjXrXT.n ) ! j         Q.3Xy.9 A fXjXtXwX2X[.R.M.^ K v T I 5               `.m.            ",
"    sXbXxXjXrX(.K v n           M.'.y.w G.tXwX3X1X`.R.m.X.K c Y Y h               <X0Xb.            ",
"    S.zXkXgXrX X&.I j           T E.u.w C '.[.`.^.E.M.} I I ^ Y j                 eX`.Y             ",
"      _.gXgXqX XP.n >             ^ C w N !.b.m.b.O.Y Y ^ / U h                   wXb.              ",
"       .2XrX9X XW.Y -             j N t F.hX .U U Y ^ / ^ n 5 >                 Y.}.}               ",
"        /.4X X|.W.( ;               Q ;XbXeX=.v Y ^ Q n j 5 <                   m.T.T               ",
"        /.0X2X'.P.O.            Y.3XdXkXaXtXA.c v v k h 5 >                     } #.M               ",
"        `.eX0X[.J./             R.0X4X[.3X9XL.Y > < < > ;                         j j               ",
"        [.eX0X`.x.Y             +.x.P.'.'.'.}.Y :   : 3                           > ,               ",
"        ).wX>XR.O.                  #.n.m.).m.Y h   C                             b c               ",
"        Y.>X].M.^                     Q { ^ M ^ C $Xl.s                           M K               ",
"         .R.m.( I                       h 0 8 M y.f.j.d                           U Y ,             ",
"          T Y n                   l.+Xf.f p 9 % s q.7.h                           Q Y :             ",
"                                  p.j.a.4.p p @ 0 r   5 k                         / L :             ",
"                                    3.d m @.C q @       v                         ( x               ",
"                                      1 ! %.m p 8       z Y                     / ~ 1               ",
"                                      x ` (     e #       x ^ /               ( ` x                 ",
"                                    v _ `       t 8         z ! ` @.@.@.@.@.%.' K                   ",
"                              - 5 U O.@.L         q #         h x L ~ ' ' _ P x                     ",
"                          M U j 5 Y ( I           e @       OXg.      2 2                           ",
"                        U v.M.O.v c j       +X+Xg.s 9 +   V.OXj.                                    ",
"                        #.R.{.L.#.5         k.j.t.1.e @ @ 8.t.w.                                    ",
"                        L.}.3X XJ.          i 4.1.    7 + t 4.                                      ",
"                        /.9XeX9X                      9 + 8 e                                       ",
"                      #. XtXgXtX                        @ +                                         ",
"                      T.9XgXkXhX                        7 X                                         ",
"                    K..XuXkXbXzX                        8 +                                         ",
"                    W.9XgXxXnXzX                          + .                                       ",
"                  &.'.rXjXxXnXzX                          # .                                       ",
"                  &.|.4XgXxXmXzX                          # .                                       ",
"                  &.W.L.(.tXkXzX                          + .                                       ",
"                ( Y.2X4XY.A._.>X                        7 X                                         ",
"                X.T.2XeX:X{.3X3X,X                      + X                                         ",
"                U b.{.1X/.(.[.2X:X                    + X                                           ",
"                  / b.L.#.n.  J.                                                                    "
};
