/* XPM */
static char *a35294e44cae4e30d911367563333b34qZsYwOGQjEmX7Imy[] = {
/* columns rows colors chars-per-pixel */
"64 64 29 1 ",
"  c None",
". c black",
"X c #010100",
"o c #020200",
"O c #050500",
"+ c #050600",
"@ c #050601",
"# c #070700",
"$ c #080800",
"% c #0A0A00",
"& c #0C0D00",
"* c #1A1A00",
"= c #1A1904",
"- c #181A04",
"; c #43430E",
": c #BFBE20",
"> c #BCBB2B",
", c #BEBE28",
"< c #BDBD2A",
"1 c #BEBE2A",
"2 c #C0C01F",
"3 c #FFFF01",
"4 c #FEFD0B",
"5 c #FDFD0D",
"6 c #FDFD0E",
"7 c #FDFD0F",
"8 c #F9F82F",
"9 c #F8F73A",
"0 c #BCBB4D",
/* pixels */
"                             .............                      ",
"                             .............                      ",
"                             .............                      ",
"                   ..........3333333333339.........             ",
"                   ..........3333333333339.........             ",
"                   ..........3333333333339.........             ",
"             ......33333333333333333333333333333333.......      ",
"             ......33333333333333333333333333333333.......      ",
"             ......33333333333337777777774333333333.......      ",
"          ...3333333333333333333***......O3333333333333339...   ",
"          ...3333333333333333333***......O3333333333333339...   ",
"          OOO3333333333333333333===......O3333333333333338OOO   ",
"      ...O3333333333333333333333.........O3333333333333333333...",
"      ...O3333333333333333333333.........O3333333333333333333...",
"      ...O3333333333333333333333.........%333333333333:>>>>>>...",
"      ...O3333333333333333333333%%%...OOO&333333333333O.........",
"      ...O3333333333333333333333%%%...OOO&333333333333O.........",
"   ...0>>:3333333333333333333333,,,>>>,,,2333333;;;;;;          ",
"   ...933333333333333333333333333333333333333333......          ",
"   ...933333333333333333333333333333333333333333......          ",
"   ...933333333333333333333333333333333338OOOOOO                ",
"   ...933333333333333333333333333333333339......                ",
"   ...933333333333333333333333333333333339......                ",
"   ...93333333333333333333333333333.......                      ",
"   ...93333333333333333333333333333.......                      ",
"   ...93333333333333333333333333333.......                      ",
"...33333333333333333333333333......                             ",
"...33333333333333333333333333......                             ",
"...33333333333333333333333333......                             ",
"...3333333333333333333O......                                   ",
"...3333333333333333333O......                                   ",
"...3333333333333333333O......                                   ",
"...3333333333333333333O......                                   ",
"...3333333333333333333O......                                   ",
"...3333333333333333333O......                                   ",
"...33333333333333333333333333......                             ",
"...33333333333333333333333333......                             ",
"...33333333333333333333333333......                             ",
"   ...93333333333333333333333333333.......                      ",
"   ...93333333333333333333333333333.......                      ",
"   ...93333333333333333333333333333.......                      ",
"   ...933333333333333333333333333333333339......                ",
"   ...933333333333333333333333333333333339......                ",
"   ...933333333333333333333333333333333338OOOOOO                ",
"   ...933333333333333333333333333333333333333333......          ",
"   ...933333333333333333333333333333333333333333......          ",
"   ...0>>:33333333333333333333333333333333333333;;;;;;          ",
"      ...O33333333333333333333333333333333333333333333O.........",
"      ...O33333333333333333333333333333333333333333333O.........",
"      ...O33333333333333333333333333333333333333333333:>>>>>>...",
"      ...O333333333333333333333333333333333333333333333333333...",
"      ...O333333333333333333333333333333333333333333333333333...",
"          OOO333333333333333333333333333333333333333333338OOO   ",
"          ...333333333333333333333333333333333333333333339...   ",
"          ...333333333333333333333333333333333333333333339...   ",
"             ......33333333333333333333333333333333.......      ",
"             ......33333333333333333333333333333333.......      ",
"             ......33333333333333333333333333333333.......      ",
"                   ..........3333333333339.........             ",
"                   ..........3333333333339.........             ",
"                   ..........3333333333339.........             ",
"                             .............                      ",
"                             .............                      ",
"                             .............                      "
};
