/* XPM */
static char *f3639d27036a4997dab27858b8b30eebL1cuzjI0LUcwGm75[] = {
/* columns rows colors chars-per-pixel */
"65 59 184 2 ",
"   c None",
".  c black",
"X  c #010100",
"o  c #000001",
"O  c #010200",
"+  c #010201",
"@  c #020200",
"#  c #030300",
"$  c #020201",
"%  c #040400",
"&  c #050600",
"*  c #050601",
"=  c #060600",
"-  c #040402",
";  c #060602",
":  c #070702",
">  c #090901",
",  c #0A0A00",
"<  c #0B0B01",
"1  c #0E0E03",
"2  c #0F0F03",
"3  c #0F0F04",
"4  c #111101",
"5  c #141401",
"6  c #161600",
"7  c #1A1A00",
"8  c #1A1A03",
"9  c #1C1C05",
"0  c #242403",
"q  c #272703",
"w  c #212107",
"e  c #252505",
"r  c #262605",
"t  c #252506",
"y  c #262606",
"u  c #292806",
"i  c #292906",
"p  c #2A2A06",
"a  c #2B2B06",
"s  c #2C2C06",
"d  c #2E2D07",
"f  c #2E2E06",
"g  c #303006",
"h  c #313106",
"j  c #333306",
"k  c #333307",
"l  c #343406",
"z  c #343407",
"x  c #363606",
"c  c #363607",
"v  c #393907",
"b  c #3A3A07",
"n  c #3D3D07",
"m  c #333308",
"M  c #3B3B08",
"N  c #3C3B08",
"B  c #3C3C08",
"V  c #3F3E08",
"C  c #3F3F08",
"Z  c #41410A",
"A  c #494908",
"S  c #4B4B08",
"D  c #4C4C09",
"F  c #4D4C09",
"G  c #4E4D08",
"H  c #4E4E08",
"J  c #4E4E0B",
"K  c #505008",
"L  c #515108",
"P  c #515208",
"I  c #525208",
"U  c #52520A",
"Y  c #555508",
"T  c #5B5B0B",
"R  c #5C5C08",
"E  c #5E5E09",
"W  c #5F5F09",
"Q  c #5F5F0A",
"!  c #59590C",
"~  c #66660A",
"^  c #67670B",
"/  c #61610D",
"(  c #696909",
")  c #6C6C0A",
"_  c #706F0C",
"`  c #737309",
"'  c #73730A",
"]  c #74740A",
"[  c #75750A",
"{  c #76760B",
"}  c #7A7A0B",
"|  c #7F7F0A",
" . c #828209",
".. c #80800A",
"X. c #81810A",
"o. c #848409",
"O. c #86850B",
"+. c #898909",
"@. c #8A8A0A",
"#. c #8B8B0A",
"$. c #8C8C08",
"%. c #8C8C0A",
"&. c #8C8C0B",
"*. c #939309",
"=. c #93930A",
"-. c #94940A",
";. c #95950B",
":. c #9D9C0A",
">. c #9E9E0A",
",. c #9E9E0B",
"<. c #A0A00A",
"1. c #A1A10A",
"2. c #A1A20A",
"3. c #A2A20A",
"4. c #A3A30A",
"5. c #A6A60A",
"6. c #A6A60C",
"7. c #A8A80A",
"8. c #AAAA0A",
"9. c #A9A90D",
"0. c #ABAB0D",
"q. c #B0B00A",
"w. c #B1B10A",
"e. c #B2B10A",
"r. c #B9B909",
"t. c #BABA09",
"y. c #BCBB09",
"u. c #BFBF09",
"i. c #C8C709",
"p. c #C8C809",
"a. c #C9C909",
"s. c #CACA09",
"d. c #CBCB09",
"f. c #CECD08",
"g. c #CECE09",
"h. c #D0D008",
"j. c #D4D408",
"k. c #DEDE0B",
"l. c #E6E607",
"z. c #E7E707",
"x. c #E8E806",
"c. c #EBEB07",
"v. c #ECEB07",
"b. c #ECEC06",
"n. c #EDEC06",
"m. c #EDED06",
"M. c #ECEC07",
"N. c #E0E00B",
"B. c #E6E609",
"V. c #E4E40A",
"C. c #E8E809",
"Z. c #E9E809",
"A. c #E9E909",
"S. c #E8E80A",
"D. c #E9E90A",
"F. c #F1F105",
"G. c #F3F305",
"H. c #F0F006",
"J. c #F1F106",
"K. c #F2F106",
"L. c #F2F206",
"P. c #F4F405",
"I. c #F5F505",
"U. c #F6F605",
"Y. c #F7F705",
"T. c #F5F506",
"R. c #FBFB03",
"E. c yellow",
"W. c #FEFE01",
"Q. c #FFFF01",
"!. c #FDFD02",
"~. c #FDFD03",
"^. c #FEFD02",
"/. c #FEFE02",
"(. c #FFFF02",
"). c #FFFF03",
"_. c #F8F804",
"`. c #F8F805",
"'. c #FAF905",
"]. c #FBFB04",
"[. c #FCFC04",
"{. c #FEFD04",
"}. c #FFFF04",
"|. c #FEFE05",
/* pixels */
"                                                      . . . . . . . . . . .                                                       ",
"                                                      . . . . . . . . . . .                                                       ",
"                                                      e e e e e e e e e e e                                                       ",
"                                    . . . . . . . . ^ S.l.l.l.l.l.l.l.l.l.S.^ . . . . . . . .                                     ",
"                                    . . . . . . . . ( Q.Q.Q.Q.Q.Q.Q.Q.Q.Q.Q.( . . . . . . . .                                     ",
"                                    s s s s s s s i o.Q.Q.Q.Q.Q.Q.Q.Q.Q.Q.Q.o.i s s s s s s s                                     ",
"                        . . . . . F S.b.b.b.b.b.b.b.I.Q.Q.Q.Q.Q.Q.Q.Q.Q.Q.Q.I.b.b.b.b.b.b.b.S.F . . . . .                         ",
"                        . . . . . S {.Q.Q.Q.Q.Q.Q.Q.Q.Q.Q.Q.Q.Q.Q.Q.Q.Q.Q.Q.Q.Q.Q.Q.Q.Q.Q.Q.{.S . . . . .                         ",
"                        c c c c g ` {.Q.Q.Q.Q.Q.Q.Q.Q.Q.Q.Q.Q.Q.Q.Q.Q.Q.Q.Q.Q.Q.Q.Q.Q.Q.Q.Q.{.` g c c c c                         ",
"                  . . N S.L.L.L.L.I.Q.Q.Q.Q.Q.Q.Q.Q.Q.Q.Q.Q.Q.Q.Q.Q.Q.Q.Q.Q.Q.Q.Q.Q.Q.Q.Q.Q.Q.I.L.L.L.L.S.N . .                   ",
"                  . . v I.Q.Q.Q.Q.Q.Q.Q.Q.Q.Q.Q.Q.Q.Q.Q.Q.Q.Q.Q.Q.Q.Q.Q.Q.Q.Q.Q.Q.Q.Q.Q.Q.Q.Q.Q.Q.Q.Q.Q.I.v . .                   ",
"                  C n ) I.Q.Q.Q.Q.Q.Q.Q.Q.Q.Q.Q.Q.Q.Q.Q.Q.Q.Q.Q.Q.Q.Q.Q.Q.Q.Q.Q.Q.Q.Q.Q.Q.Q.Q.Q.Q.Q.Q.Q.I.) n C                   ",
"            . . c S.I._.Q.Q.Q.Q.Q.Q.Q.Q.Q.Q.Q.Q.Q.Q.Q.Q.Q.Q.Q.Q.Q.Q.Q.Q.Q.Q.Q.Q.Q.Q.Q.Q.Q.Q.Q.Q.Q.Q.Q.Q.Q._.I.S.c . .             ",
"            . . c L.Q.Q.Q.Q.Q.Q.Q.Q.Q.Q.Q.Q.Q.Q.Q.Q.Q.Q.Q.Q.Q.Q.Q.Q.Q.Q.Q.Q.Q.Q.Q.Q.Q.Q.Q.Q.Q.Q.Q.Q.Q.Q.Q.Q.Q.L.c . .             ",
"            . . c L.Q.Q.Q.Q.Q.Q.Q.Q.Q.Q.Q.Q.Q.Q.Q.Q.Q.Q.Q.Q.Q.Q.Q.Q.Q.Q.Q.Q.Q.Q.Q.Q.Q.Q.Q.Q.Q.Q.Q.Q.Q.Q.Q.Q.Q.L.c . .             ",
"            . . c L.Q.Q.Q.Q.Q.Q.Q.Q.Q.Q.Q.Q.Q.Q.Q.Q.Q.Q.Q.Q.Q.Q.Q.Q.Q.Q.Q.Q.Q.Q.Q.Q.Q.Q.Q.Q.Q.Q.Q.Q.Q.Q.Q.Q.Q.L.c . .             ",
"            . . g L.Q.Q.Q.Q.Q.Q.Q.Q.Q.Q.Q.Q.Q.Q.Q.Q.Q.Q.Q.Q.Q.Q.Q.Q.Q.Q.Q.Q.Q.Q.Q.Q.Q.Q.Q.Q.Q.Q.Q.Q.Q.Q.Q.Q.Q.L.g . .             ",
"            L L { I.Q.Q.Q.Q.Q.Q.Q.Q.Q.Q.Q.Q.Q.Q.Q.Q.Q.Q.Q.Q.Q.Q.Q.Q.Q.Q.Q.Q.Q.Q.Q.Q.Q.Q.Q.Q.Q.Q.Q.Q.Q.Q.Q.Q.Q.I.{ L L             ",
"      . . s S.{.Q.Q.Q.Q.Q.Q.Q.Q.Q.Q.Q.Q.Q.Q.Q.Q.Q.Q.Q.Q.Q.Q.Q.Q.Q.Q.Q.Q.Q.Q.Q.Q.Q.Q.Q.Q.Q.Q.Q.Q.Q.Q.Q.Q.Q.Q.Q.Q.Q.{.S.s . .       ",
"      . . s b.Q.Q.Q.Q.Q.Q.Q.Q.Q.Q.Q.Q.Q.Q.Q.Q.Q.Q.Q.Q.Q.Q.Q.Q.Q.Q.Q.Q.Q.Q.Q.Q.Q.Q.Q.Q.Q.Q.Q.Q.Q.Q.Q.Q.Q.Q.Q.Q.Q.Q.Q.b.s . .       ",
"      . . s v.Q.Q.Q.Q.Q.Q.Q.Q.Q.Q.Q.Q.Q.Q.Q.Q.Q.Q.Q.Q.Q.Q.j.1.1.1.1.1.j.Q.Q.Q.Q.Q.Q.Q.Q.Q.Q.Q.Q.Q.Q.Q.Q.Q.Q.Q.Q.Q.Q.v.s . .       ",
"      . . s v.Q.Q.Q.Q.Q.Q.Q.Q.Q.Q.Q.Q.Q.Q.Q.Q.Q.Q.Q.Q.Q.Q.+.. . . . . +.Q.Q.Q.Q.Q.Q.Q.Q.Q.Q.Q.Q.Q.Q.Q.Q.Q.Q.Q.Q.Q.Q.v.s . .       ",
"      . . s v.Q.Q.Q.Q.Q.Q.Q.Q.Q.Q.Q.Q.Q.Q.Q.Q.Q.Q.Q.Q.Q.Q.+.. . . . . +.Q.Q.Q.Q.Q.Q.Q.Q.Q.Q.Q.Q.Q.Q.Q.Q.Q.Q.Q.Q.Q.Q.v.s . .       ",
"      . . s v.Q.Q.Q.Q.Q.Q.Q.Q.Q.Q.Q.Q.Q.Q.Q.Q.Q.Q.Q.Q.Q.Q.+.. . . . . +.Q.Q.Q.Q.Q.Q.Q.Q.Q.Q.Q.Q.Q.Q.Q.Q.Q.Q.Q.Q.Q.Q.v.s . .       ",
"      . . s v.Q.Q.Q.Q.Q.Q.Q.Q.Q.Q.Q.Q.Q.Q.Q.Q.Q.Q.Q.Q.Q.Q.+.. . . . . +.Q.Q.Q.Q.Q.Q.Q.Q.Q.Q.Q.Q.Q.Q.Q.Q.Q.Q.Q.Q.Q.Q.v.s . .       ",
"      . . i c.Q.Q.Q.Q.Q.Q.Q.Q.Q.Q.Q.Q.Q.Q.Q.Q.Q.Q.Q.Q.Q.Q.+.. . . . . +.Q.Q.Q.Q.Q.Q.Q.Q.Q.Q.Q.Q.Q.Q.Q.Q.Q.Q.Q.Q.Q.Q.c.i . .       ",
"    w _ ` &.I.Q.Q.Q.Q.Q.Q.Q.Q.Q.Q.Q.Q.Q.Q.Q.Q.Q.Q.Q.g.+.&./ . . . . . / &.+.g.Q.Q.Q.Q.Q.Q.Q.Q.Q.Q.Q.Q.Q.Q.Q.Q.Q.Q.Q.I.&.` _ w     ",
". . e S.Q.Q.Q.Q.Q.Q.Q.Q.Q.Q.Q.Q.Q.Q.Q.Q.Q.Q.Q.Q.Q.Q.*.. . .           . . . *.Q.Q.Q.Q.Q.Q.Q.Q.Q.Q.Q.Q.Q.Q.Q.Q.Q.Q.Q.Q.Q.Q.S.e . . ",
". . e l.Q.Q.Q.Q.Q.Q.Q.Q.Q.Q.Q.Q.Q.Q.Q.Q.Q.Q.Q.Q.Q.Q.-.. . .           . . . -.Q.Q.Q.Q.Q.Q.Q.Q.Q.Q.Q.Q.Q.Q.Q.Q.Q.Q.Q.Q.Q.Q.l.e . . ",
". . e l.Q.Q.Q.Q.c.*.&.+...| ..o...8.Q.Q.Q.Q.Q.Q.Q.Q.-.. . .           . . . -.Q.Q.Q.Q.Q.Q.Q.Q.Q.Q.Q.Q.Q.Q.Q.Q.Q.Q.Q.Q.Q.Q.l.e . . ",
". . e l.Q.Q.Q.Q.h.q 6 4 . . . = . L _.Q.Q.Q.Q.Q.Q.Q.-.. . .           . . . -.Q.Q.Q.Q.Q.Q.Q.Q.Q.Q.Q.Q.Q.Q.Q.Q.Q.Q.Q.Q.Q.Q.l.e . . ",
". . e l.Q.Q.Q.Q.h.q 7 6 . . . , = Y _.Q.Q.Q.Q.Q.Q.Q.-.. . .           . . . -.Q.Q.Q.Q.Q.Q.Q.Q.Q.Q.Q.Q.Q.Q.Q.Q.Q.Q.Q.Q.Q.Q.l.e . . ",
". . e l.Q.Q.Q.Q.g.7 , , . . . = . L _.Q.Q.Q.Q.p.{ { !                       ! { { p.Q.Q.Q.Q.Q.Q.Q.Q.Q.Q.Q.Q.Q.Q.Q.Q.Q.Q.Q.l.e . . ",
". . e l.Q.Q.Q.Q.p.1 . . . . . . . F _.Q.Q.Q.Q.,.. . .                       . . . ,.Q.Q.Q.Q.Q.Q.Q.Q.Q.Q.Q.Q.Q.Q.Q.Q.Q.Q.Q.l.e . . ",
". . e l.Q.Q.Q.Q.p.1 . . . . . . . F _.Q.Q.Q.Q.,.. . .                       . . . ,.Q.Q.Q.Q.Q.Q.Q.Q.Q.Q.Q.Q.Q.Q.Q.Q.Q.Q.Q.l.e . . ",
". . e l.Q.Q.Q.Q.p.1 . . . . . . . L _.Q.Q.Q.Q.,.. . .                       . . . ,.Q.Q.Q.Q.Q.Q.Q.Q.Q.Q.Q.Q.Q.Q.Q.Q.Q.Q.Q.l.e . . ",
". . e l.Q.Q.Q.Q.p.1 . . . . . = . L _.Q.Q.Q.Q.,.. . .                       . . . ,.Q.Q.Q.Q.Q.Q.Q.Q.Q.Q.Q.Q.Q.Q.Q.Q.Q.Q.Q.l.e . . ",
". . e B.Q.Q.Q.Q.p.3 . . . . . = . L _.Q.Q.{.{.,.. . .                       . . . ,.{.{.Q.Q.Q.Q.Q.Q.Q.Q.Q.Q.Q.Q.Q.Q.Q.Q.Q.B.e . . ",
"      T W } L.Q.b.5.1.1.1.1.1.1.1.u.Q.Q.p.W W F                                   F W W p.Q.Q.Q.Q.Q.Q.Q.Q.Q.Q.Q.Q.Q.L.} W T       ",
"      . . i c.Q.Q.Q.Q.Q.Q.Q.Q.Q.Q.Q.Q.Q.5.. . .                                   . . . 5.Q.Q.Q.Q.Q.Q.Q.Q.Q.Q.Q.Q.Q.c.i . .       ",
"      . . s v.Q.Q.Q.Q.Q.Q.Q.Q.Q.Q.Q.Q.Q.8.. . .                                   . . . 8.Q.Q.Q.Q.Q.Q.Q.Q.Q.Q.Q.Q.Q.v.s . .       ",
"      . . s v.Q.Q.Q.Q.Q.Q.Q.Q.Q.Q.Q.Q.Q.8.. . .                                   . . . 8.Q.Q.Q.Q.Q.Q.Q.Q.Q.Q.Q.Q.Q.v.s . .       ",
"      . . s v.Q.Q.Q.Q.Q.Q.Q.Q.Q.Q.Q.Q.Q.8.. . .                                   . . . 8.Q.Q.Q.Q.Q.Q.Q.Q.Q.Q.Q.Q.Q.v.s . .       ",
"      . . s v.Q.Q.Q.Q.Q.Q.Q.Q.Q.Q.Q._.{.6.. . .                                   . . . 6.{._.Q.Q.Q.Q.Q.Q.Q.Q.Q.Q.Q.v.s . .       ",
"      . . s v.Q.Q.Q.Q.Q.Q.Q.Q.Q.Q.i.F S Z                                               Z S F i.Q.Q.Q.Q.Q.Q.Q.Q.Q.Q.v.s . .       ",
"      . . s b.Q.Q.Q.Q.Q.Q.Q.Q.Q.Q.w.. . .                                               . . . w.Q.Q.Q.Q.Q.Q.Q.Q.Q.Q.b.s . .       ",
"      . . s B.I._.Q.Q.Q.Q.Q.Q.Q.Q.w.= . .                                               . . = w.Q.Q.Q.Q.Q.Q.Q.Q._.I.B.s . .       ",
"            C n ^ I.Q.Q.Q.Q.Q.Q.Q.w.= . .                                               . . = w.Q.Q.Q.Q.Q.Q.Q.I.^ n C             ",
"            . . g L.Q.Q.Q.Q.Q.Q.Q.w.= . .                                               . . = w.Q.Q.Q.Q.Q.Q.Q.L.g . .             ",
"            . . c L.Q.Q.Q.Q.R.L.I.9.= . .                                               . . = 9.I.L.R.Q.Q.Q.Q.L.c . .             ",
"            . . c L.Q.Q.Q.Q.p.C c m                                                           m c C p.Q.Q.Q.Q.L.c . .             ",
"            . . c L.Q.Q.Q.Q.r.= . .                                                           . . = r.Q.Q.Q.Q.L.c . .             ",
"            . . g N.b.L.Q.Q.r.= . .                                                           . . = r.Q.Q.L.b.N.g . .             ",
"                  s i W I.Q.r.= . .                                                           . . = r.Q.I.W i s                   ",
"                  . . v I.Q.y.= . .                                                           . . = y.Q.I.v . .                   ",
"                  . . M k.c.9.= . .                                                           . . = 9.c.k.M . .                   ",
"                        e e 9 . . .                                                           . . . 9 e e                         ",
"                        . . . . . .                                                           . . . . . .                         ",
"                        . . . . . .                                                           . . . . . .                         "
};
