/* XPM */
static char *_950be8688904568a34bf3b9257515e8M7g0xQZx9hoLbZjZ[] = {
/* columns rows colors chars-per-pixel */
"65 59 184 2 ",
"   c None",
".  c black",
"X  c #010100",
"o  c #000001",
"O  c #010200",
"+  c #010201",
"@  c #020200",
"#  c #030300",
"$  c #020201",
"%  c #040400",
"&  c #050600",
"*  c #050601",
"=  c #060600",
"-  c #040402",
";  c #060602",
":  c #070702",
">  c #090901",
",  c #0A0A00",
"<  c #0B0B01",
"1  c #0E0E03",
"2  c #0F0F03",
"3  c #0F0F04",
"4  c #111101",
"5  c #141401",
"6  c #161600",
"7  c #1A1A00",
"8  c #1A1A03",
"9  c #1C1C05",
"0  c #242403",
"q  c #272703",
"w  c #212107",
"e  c #252505",
"r  c #262605",
"t  c #252506",
"y  c #262606",
"u  c #292806",
"i  c #292906",
"p  c #2A2A06",
"a  c #2B2B06",
"s  c #2C2C06",
"d  c #2E2D07",
"f  c #2E2E06",
"g  c #303006",
"h  c #313106",
"j  c #333306",
"k  c #333307",
"l  c #343406",
"z  c #343407",
"x  c #363606",
"c  c #363607",
"v  c #393907",
"b  c #3A3A07",
"n  c #3D3D07",
"m  c #333308",
"M  c #3B3B08",
"N  c #3C3B08",
"B  c #3C3C08",
"V  c #3F3E08",
"C  c #3F3F08",
"Z  c #41410A",
"A  c #494908",
"S  c #4B4B08",
"D  c #4C4C09",
"F  c #4D4C09",
"G  c #4E4D08",
"H  c #4E4E08",
"J  c #4E4E0B",
"K  c #505008",
"L  c #515108",
"P  c #515208",
"I  c #525208",
"U  c #52520A",
"Y  c #555508",
"T  c #5B5B0B",
"R  c #5C5C08",
"E  c #5E5E09",
"W  c #5F5F09",
"Q  c #5F5F0A",
"!  c #59590C",
"~  c #66660A",
"^  c #67670B",
"/  c #61610D",
"(  c #696909",
")  c #6C6C0A",
"_  c #706F0C",
"`  c #737309",
"'  c #73730A",
"]  c #74740A",
"[  c #75750A",
"{  c #76760B",
"}  c #7A7A0B",
"|  c #7F7F0A",
" . c #828209",
".. c #80800A",
"X. c #81810A",
"o. c #848409",
"O. c #86850B",
"+. c #898909",
"@. c #8A8A0A",
"#. c #8B8B0A",
"$. c #8C8C08",
"%. c #8C8C0A",
"&. c #8C8C0B",
"*. c #939309",
"=. c #93930A",
"-. c #94940A",
";. c #95950B",
":. c #9D9C0A",
">. c #9E9E0A",
",. c #9E9E0B",
"<. c #A0A00A",
"1. c #A1A10A",
"2. c #A1A20A",
"3. c #A2A20A",
"4. c #A3A30A",
"5. c #A6A60A",
"6. c #A6A60C",
"7. c #A8A80A",
"8. c #AAAA0A",
"9. c #A9A90D",
"0. c #ABAB0D",
"q. c #B0B00A",
"w. c #B1B10A",
"e. c #B2B10A",
"r. c #B9B909",
"t. c #BABA09",
"y. c #BCBB09",
"u. c #BFBF09",
"i. c #C8C709",
"p. c #C8C809",
"a. c #C9C909",
"s. c #CACA09",
"d. c #CBCB09",
"f. c #CECD08",
"g. c #CECE09",
"h. c #D0D008",
"j. c #D4D408",
"k. c #DEDE0B",
"l. c #E6E607",
"z. c #E7E707",
"x. c #E8E806",
"c. c #EBEB07",
"v. c #ECEB07",
"b. c #ECEC06",
"n. c #EDEC06",
"m. c #EDED06",
"M. c #ECEC07",
"N. c #E0E00B",
"B. c #E6E609",
"V. c #E4E40A",
"C. c #E8E809",
"Z. c #E9E809",
"A. c #E9E909",
"S. c #E8E80A",
"D. c #E9E90A",
"F. c #F1F105",
"G. c #F3F305",
"H. c #F0F006",
"J. c #F1F106",
"K. c #F2F106",
"L. c #F2F206",
"P. c #F4F405",
"I. c #F5F505",
"U. c #F6F605",
"Y. c #F7F705",
"T. c #F5F506",
"R. c #FBFB03",
"E. c yellow",
"W. c #FEFE01",
"Q. c #FFFF01",
"!. c #FDFD02",
"~. c #FDFD03",
"^. c #FEFD02",
"/. c #FEFE02",
"(. c #FFFF02",
"). c #FFFF03",
"_. c #F8F804",
"`. c #F8F805",
"'. c #FAF905",
"]. c #FBFB04",
"[. c #FCFC04",
"{. c #FEFD04",
"}. c #FFFF04",
"|. c #FEFE05",
/* pixels */
"                        . . . . . .                                                           . . . . . .                         ",
"                        . . . . . .                                                           . . . . . .                         ",
"                        r r 9 . . .                                                           . . . 9 r r                         ",
"                  . . M k.c.9.; . .                                                           . . ; 9.c.k.M . .                   ",
"                  . . b U.Q.y.; . .                                                           . . ; y.Q.U.b . .                   ",
"                  d a Q U.Q.t.; . .                                                           . . ; t.Q.U.Q a d                   ",
"            . . k N.m.F.Q.Q.t.; . .                                                           . . ; t.Q.Q.F.m.N.k . .             ",
"            . . l F.Q.Q.Q.Q.t.; . .                                                           . . ; t.Q.Q.Q.Q.F.l . .             ",
"            . . l F.Q.Q.Q.Q.a.B l m                                                           m l B a.Q.Q.Q.Q.F.l . .             ",
"            . . l F.Q.Q.Q.Q.R.F.U.9.; . .                                               . . ; 9.U.F.R.Q.Q.Q.Q.F.l . .             ",
"            . . k F.Q.Q.Q.Q.Q.Q.Q.q.; . .                                               . . ; q.Q.Q.Q.Q.Q.Q.Q.F.k . .             ",
"            B n ~ U.Q.Q.Q.Q.Q.Q.Q.q.; . .                                               . . ; q.Q.Q.Q.Q.Q.Q.Q.U.~ n B             ",
"      . . d V.U.`.Q.Q.Q.Q.Q.Q.Q.Q.q.; . .                                               . . ; q.Q.Q.Q.Q.Q.Q.Q.Q.`.U.V.d . .       ",
"      . . d m.Q.Q.Q.Q.Q.Q.Q.Q.Q.Q.q.. . .                                               . . . q.Q.Q.Q.Q.Q.Q.Q.Q.Q.Q.m.d . .       ",
"      . . d v.Q.Q.Q.Q.Q.Q.Q.Q.Q.Q.i.J A Z                                               Z A J i.Q.Q.Q.Q.Q.Q.Q.Q.Q.Q.v.d . .       ",
"      . . d v.Q.Q.Q.Q.Q.Q.Q.Q.Q.Q.Q.`.}.6.. . .                                   . . . 6.}.`.Q.Q.Q.Q.Q.Q.Q.Q.Q.Q.Q.v.d . .       ",
"      . . d v.Q.Q.Q.Q.Q.Q.Q.Q.Q.Q.Q.Q.Q.7.. . .                                   . . . 7.Q.Q.Q.Q.Q.Q.Q.Q.Q.Q.Q.Q.Q.v.d . .       ",
"      . . d v.Q.Q.Q.Q.Q.Q.Q.Q.Q.Q.Q.Q.Q.7.. . .                                   . . . 7.Q.Q.Q.Q.Q.Q.Q.Q.Q.Q.Q.Q.Q.v.d . .       ",
"      . . d v.Q.Q.Q.Q.Q.Q.Q.Q.Q.Q.Q.Q.Q.7.. . .                                   . . . 7.Q.Q.Q.Q.Q.Q.Q.Q.Q.Q.Q.Q.Q.v.d . .       ",
"      . . a c.Q.Q.Q.Q.Q.Q.Q.Q.Q.Q.Q.Q.Q.5.. . .                                   . . . 5.Q.Q.Q.Q.Q.Q.Q.Q.Q.Q.Q.Q.Q.c.a . .       ",
"      T Q } F.Q.m.5.4.4.4.4.4.4.4.u.Q.Q.a.Q Q J                                   J Q Q a.Q.Q.Q.Q.Q.Q.Q.Q.Q.Q.Q.Q.Q.F.} Q T       ",
". . r V.Q.Q.Q.Q.a.3 . . . . . ; . P `.Q.Q.}.}.,.. . .                       . . . ,.}.}.Q.Q.Q.Q.Q.Q.Q.Q.Q.Q.Q.Q.Q.Q.Q.Q.Q.V.r . . ",
". . r l.Q.Q.Q.Q.a.1 . . . . . ; . P `.Q.Q.Q.Q.,.. . .                       . . . ,.Q.Q.Q.Q.Q.Q.Q.Q.Q.Q.Q.Q.Q.Q.Q.Q.Q.Q.Q.l.r . . ",
". . r l.Q.Q.Q.Q.a.1 . . . . . . . P `.Q.Q.Q.Q.,.. . .                       . . . ,.Q.Q.Q.Q.Q.Q.Q.Q.Q.Q.Q.Q.Q.Q.Q.Q.Q.Q.Q.l.r . . ",
". . r l.Q.Q.Q.Q.a.1 . . . . . . . J `.Q.Q.Q.Q.,.. . .                       . . . ,.Q.Q.Q.Q.Q.Q.Q.Q.Q.Q.Q.Q.Q.Q.Q.Q.Q.Q.Q.l.r . . ",
". . r l.Q.Q.Q.Q.a.1 . . . . . . . J `.Q.Q.Q.Q.,.. . .                       . . . ,.Q.Q.Q.Q.Q.Q.Q.Q.Q.Q.Q.Q.Q.Q.Q.Q.Q.Q.Q.l.r . . ",
". . r l.Q.Q.Q.Q.f.7 < < . . . ; . P `.Q.Q.Q.Q.a.[ [ !                       ! [ [ a.Q.Q.Q.Q.Q.Q.Q.Q.Q.Q.Q.Q.Q.Q.Q.Q.Q.Q.Q.l.r . . ",
". . r l.Q.Q.Q.Q.h.q 7 5 . . . < ; Y `.Q.Q.Q.Q.Q.Q.Q.;.. . .           . . . ;.Q.Q.Q.Q.Q.Q.Q.Q.Q.Q.Q.Q.Q.Q.Q.Q.Q.Q.Q.Q.Q.Q.l.r . . ",
". . r l.Q.Q.Q.Q.h.q 5 4 . . . ; . P `.Q.Q.Q.Q.Q.Q.Q.;.. . .           . . . ;.Q.Q.Q.Q.Q.Q.Q.Q.Q.Q.Q.Q.Q.Q.Q.Q.Q.Q.Q.Q.Q.Q.l.r . . ",
". . r l.Q.Q.Q.Q.c.*.$.+...| ..o...7.Q.Q.Q.Q.Q.Q.Q.Q.;.. . .           . . . ;.Q.Q.Q.Q.Q.Q.Q.Q.Q.Q.Q.Q.Q.Q.Q.Q.Q.Q.Q.Q.Q.Q.l.r . . ",
". . r l.Q.Q.Q.Q.Q.Q.Q.Q.Q.Q.Q.Q.Q.Q.Q.Q.Q.Q.Q.Q.Q.Q.;.. . .           . . . ;.Q.Q.Q.Q.Q.Q.Q.Q.Q.Q.Q.Q.Q.Q.Q.Q.Q.Q.Q.Q.Q.Q.l.r . . ",
". . r Z.Q.Q.Q.Q.Q.Q.Q.Q.Q.Q.Q.Q.Q.Q.Q.Q.Q.Q.Q.Q.Q.Q.*.. . .           . . . *.Q.Q.Q.Q.Q.Q.Q.Q.Q.Q.Q.Q.Q.Q.Q.Q.Q.Q.Q.Q.Q.Q.Z.r . . ",
"    w _ ` $.U.Q.Q.Q.Q.Q.Q.Q.Q.Q.Q.Q.Q.Q.Q.Q.Q.Q.Q.Q.f.+.$./ . . . . . / $.+.f.Q.Q.Q.Q.Q.Q.Q.Q.Q.Q.Q.Q.Q.Q.Q.Q.Q.Q.Q.U.$.` _ w     ",
"      . . a c.Q.Q.Q.Q.Q.Q.Q.Q.Q.Q.Q.Q.Q.Q.Q.Q.Q.Q.Q.Q.Q.Q.+.. . . . . +.Q.Q.Q.Q.Q.Q.Q.Q.Q.Q.Q.Q.Q.Q.Q.Q.Q.Q.Q.Q.Q.Q.c.a . .       ",
"      . . d v.Q.Q.Q.Q.Q.Q.Q.Q.Q.Q.Q.Q.Q.Q.Q.Q.Q.Q.Q.Q.Q.Q.+.. . . . . +.Q.Q.Q.Q.Q.Q.Q.Q.Q.Q.Q.Q.Q.Q.Q.Q.Q.Q.Q.Q.Q.Q.v.d . .       ",
"      . . d v.Q.Q.Q.Q.Q.Q.Q.Q.Q.Q.Q.Q.Q.Q.Q.Q.Q.Q.Q.Q.Q.Q.+.. . . . . +.Q.Q.Q.Q.Q.Q.Q.Q.Q.Q.Q.Q.Q.Q.Q.Q.Q.Q.Q.Q.Q.Q.v.d . .       ",
"      . . d v.Q.Q.Q.Q.Q.Q.Q.Q.Q.Q.Q.Q.Q.Q.Q.Q.Q.Q.Q.Q.Q.Q.+.. . . . . +.Q.Q.Q.Q.Q.Q.Q.Q.Q.Q.Q.Q.Q.Q.Q.Q.Q.Q.Q.Q.Q.Q.v.d . .       ",
"      . . d v.Q.Q.Q.Q.Q.Q.Q.Q.Q.Q.Q.Q.Q.Q.Q.Q.Q.Q.Q.Q.Q.Q.+.. . . . . +.Q.Q.Q.Q.Q.Q.Q.Q.Q.Q.Q.Q.Q.Q.Q.Q.Q.Q.Q.Q.Q.Q.v.d . .       ",
"      . . d v.Q.Q.Q.Q.Q.Q.Q.Q.Q.Q.Q.Q.Q.Q.Q.Q.Q.Q.Q.Q.Q.Q.j.4.4.4.4.4.j.Q.Q.Q.Q.Q.Q.Q.Q.Q.Q.Q.Q.Q.Q.Q.Q.Q.Q.Q.Q.Q.Q.v.d . .       ",
"      . . d m.Q.Q.Q.Q.Q.Q.Q.Q.Q.Q.Q.Q.Q.Q.Q.Q.Q.Q.Q.Q.Q.Q.Q.Q.Q.Q.Q.Q.Q.Q.Q.Q.Q.Q.Q.Q.Q.Q.Q.Q.Q.Q.Q.Q.Q.Q.Q.Q.Q.Q.Q.m.d . .       ",
"      . . d Z.}.Q.Q.Q.Q.Q.Q.Q.Q.Q.Q.Q.Q.Q.Q.Q.Q.Q.Q.Q.Q.Q.Q.Q.Q.Q.Q.Q.Q.Q.Q.Q.Q.Q.Q.Q.Q.Q.Q.Q.Q.Q.Q.Q.Q.Q.Q.Q.Q.Q.}.Z.d . .       ",
"            P P [ U.Q.Q.Q.Q.Q.Q.Q.Q.Q.Q.Q.Q.Q.Q.Q.Q.Q.Q.Q.Q.Q.Q.Q.Q.Q.Q.Q.Q.Q.Q.Q.Q.Q.Q.Q.Q.Q.Q.Q.Q.Q.Q.Q.Q.Q.U.[ P P             ",
"            . . k F.Q.Q.Q.Q.Q.Q.Q.Q.Q.Q.Q.Q.Q.Q.Q.Q.Q.Q.Q.Q.Q.Q.Q.Q.Q.Q.Q.Q.Q.Q.Q.Q.Q.Q.Q.Q.Q.Q.Q.Q.Q.Q.Q.Q.Q.F.k . .             ",
"            . . l F.Q.Q.Q.Q.Q.Q.Q.Q.Q.Q.Q.Q.Q.Q.Q.Q.Q.Q.Q.Q.Q.Q.Q.Q.Q.Q.Q.Q.Q.Q.Q.Q.Q.Q.Q.Q.Q.Q.Q.Q.Q.Q.Q.Q.Q.F.l . .             ",
"            . . l F.Q.Q.Q.Q.Q.Q.Q.Q.Q.Q.Q.Q.Q.Q.Q.Q.Q.Q.Q.Q.Q.Q.Q.Q.Q.Q.Q.Q.Q.Q.Q.Q.Q.Q.Q.Q.Q.Q.Q.Q.Q.Q.Q.Q.Q.F.l . .             ",
"            . . l F.Q.Q.Q.Q.Q.Q.Q.Q.Q.Q.Q.Q.Q.Q.Q.Q.Q.Q.Q.Q.Q.Q.Q.Q.Q.Q.Q.Q.Q.Q.Q.Q.Q.Q.Q.Q.Q.Q.Q.Q.Q.Q.Q.Q.Q.F.l . .             ",
"            . . l Z.U.`.Q.Q.Q.Q.Q.Q.Q.Q.Q.Q.Q.Q.Q.Q.Q.Q.Q.Q.Q.Q.Q.Q.Q.Q.Q.Q.Q.Q.Q.Q.Q.Q.Q.Q.Q.Q.Q.Q.Q.Q.Q.`.U.Z.l . .             ",
"                  B n ) U.Q.Q.Q.Q.Q.Q.Q.Q.Q.Q.Q.Q.Q.Q.Q.Q.Q.Q.Q.Q.Q.Q.Q.Q.Q.Q.Q.Q.Q.Q.Q.Q.Q.Q.Q.Q.Q.Q.Q.U.) n B                   ",
"                  . . b U.Q.Q.Q.Q.Q.Q.Q.Q.Q.Q.Q.Q.Q.Q.Q.Q.Q.Q.Q.Q.Q.Q.Q.Q.Q.Q.Q.Q.Q.Q.Q.Q.Q.Q.Q.Q.Q.Q.Q.U.b . .                   ",
"                  . . N Z.F.F.F.F.U.Q.Q.Q.Q.Q.Q.Q.Q.Q.Q.Q.Q.Q.Q.Q.Q.Q.Q.Q.Q.Q.Q.Q.Q.Q.Q.Q.Q.Q.U.F.F.F.F.Z.N . .                   ",
"                        l l l l k ` }.Q.Q.Q.Q.Q.Q.Q.Q.Q.Q.Q.Q.Q.Q.Q.Q.Q.Q.Q.Q.Q.Q.Q.Q.Q.Q.Q.}.` k l l l l                         ",
"                        . . . . . A }.Q.Q.Q.Q.Q.Q.Q.Q.Q.Q.Q.Q.Q.Q.Q.Q.Q.Q.Q.Q.Q.Q.Q.Q.Q.Q.Q.}.A . . . . .                         ",
"                        . . . . . J Z.m.m.m.m.m.m.m.U.Q.Q.Q.Q.Q.Q.Q.Q.Q.Q.Q.U.m.m.m.m.m.m.m.Z.J . . . . .                         ",
"                                    d d d d d d d a o.Q.Q.Q.Q.Q.Q.Q.Q.Q.Q.Q.o.a d d d d d d d                                     ",
"                                    . . . . . . . . ( Q.Q.Q.Q.Q.Q.Q.Q.Q.Q.Q.( . . . . . . . .                                     ",
"                                    . . . . . . . . ~ Z.l.l.l.l.l.l.l.l.l.Z.~ . . . . . . . .                                     ",
"                                                      r r r r r r r r r r r                                                       ",
"                                                      . . . . . . . . . . .                                                       ",
"                                                      . . . . . . . . . . .                                                       "
};
