/* XPM */
static char *edf047c0fd2f4737cc659b99f26256b0hpWyYJjPY9PWaH5j[] = {
/* columns rows colors chars-per-pixel */
"64 64 248 2 ",
"   c None",
".  c #040403",
"X  c #0B0A0A",
"o  c #080807",
"O  c #100E0E",
"+  c #14100F",
"@  c #151211",
"#  c #1A1512",
"$  c #1D1B18",
"%  c #241A15",
"&  c #221C19",
"*  c #371E1A",
"=  c #1E211E",
"-  c #2A221C",
";  c #30251E",
":  c #14242C",
">  c #142837",
",  c #1D323B",
"<  c #242B27",
"1  c #372C25",
"2  c #26342E",
"3  c #283938",
"4  c #383939",
"5  c #37352D",
"6  c #4D1A15",
"7  c #681F19",
"8  c #52211C",
"9  c #7A2018",
"0  c #66271F",
"q  c #42352C",
"w  c #473E38",
"e  c #54332B",
"r  c #6D3B30",
"t  c #34463C",
"y  c #374837",
"u  c #4E4A39",
"i  c #744D30",
"p  c #716B34",
"a  c #4F6536",
"s  c #1A3142",
"d  c #253947",
"f  c #3B4C48",
"g  c #364A51",
"h  c #1B4072",
"j  c #185E70",
"k  c #236074",
"l  c #474546",
"z  c #554A47",
"x  c #495954",
"c  c #5A5A59",
"v  c #4E514E",
"b  c #6B554F",
"n  c #55665D",
"m  c #70635E",
"M  c #485674",
"N  c #5B6A65",
"B  c #5B6C76",
"V  c #676767",
"C  c #627067",
"Z  c #747474",
"A  c #7B7B7C",
"S  c #6F6F71",
"D  c #615E60",
"F  c #403F40",
"G  c #8B2419",
"H  c #87271B",
"J  c #932419",
"K  c #98271A",
"L  c #9C291C",
"P  c #932A1D",
"I  c #A22A1C",
"U  c #AA2E1F",
"Y  c #892F22",
"T  c #982E21",
"R  c #8B392B",
"E  c #9C3124",
"W  c #983326",
"Q  c #883D33",
"!  c #A43326",
"~  c #A83629",
"^  c #BB3929",
"/  c #B63728",
"(  c #A83E33",
")  c #AD3427",
"_  c #CA3926",
"`  c #C33B29",
"'  c #CC3E2B",
"]  c #C43927",
"[  c #D33825",
"{  c #C63F32",
"}  c #E13C26",
"|  c #98453B",
" . c #924E31",
".. c #A35727",
"X. c #A84439",
"o. c #B7443D",
"O. c #A15D3A",
"+. c #9D6432",
"@. c #907535",
"#. c #A56939",
"$. c #A57438",
"%. c #AD6C2F",
"&. c #CD402D",
"*. c #CB443E",
"=. c #C5433A",
"-. c #D74638",
";. c #D44431",
":. c #EC463F",
">. c #E5473A",
",. c #ED482B",
"<. c #9C5447",
"1. c #8A5C56",
"2. c #8E4D48",
"3. c #A84A43",
"4. c #B64A46",
"5. c #B55445",
"6. c #B75759",
"7. c #AC544D",
"8. c #8D625A",
"9. c #936855",
"0. c #AF6552",
"q. c #B95B65",
"w. c #87726E",
"e. c #AD6D63",
"r. c #B56664",
"t. c #B4776C",
"y. c #B97777",
"u. c #B26D74",
"i. c #C74C46",
"p. c #DA4744",
"a. c #CA5747",
"s. c #DB5544",
"d. c #D65547",
"f. c #C85857",
"g. c #DA5454",
"h. c #C84F52",
"j. c #E54541",
"k. c #EC4744",
"l. c #ED4C43",
"z. c #EA4C4A",
"x. c #ED5345",
"c. c #E55947",
"v. c #ED5449",
"b. c #ED5A4A",
"n. c #E55747",
"m. c #ED4D51",
"M. c #EE5453",
"N. c #EF5559",
"B. c #ED5B5D",
"V. c #E75B58",
"C. c #F05C58",
"Z. c #CB6C5E",
"A. c #EE6857",
"S. c #F06858",
"D. c #ED6854",
"F. c #EF5C61",
"G. c #C66867",
"H. c #DA6967",
"J. c #C87674",
"K. c #CF766F",
"L. c #EF6164",
"P. c #E76969",
"I. c #F06466",
"U. c #F06B6D",
"Y. c #F06669",
"T. c #F27867",
"R. c #F16F70",
"E. c #E67B79",
"W. c #F17374",
"Q. c #F37A7B",
"!. c #F27876",
"~. c #E6736D",
"^. c #728936",
"/. c #54AC3E",
"(. c #459838",
"). c #AA8835",
"_. c #BCA93F",
"`. c #828E39",
"'. c #E99E2B",
"]. c #908954",
"[. c #B19640",
"{. c #A6974A",
"}. c #B78B6C",
"|. c #8DA345",
" X c #CA8E7A",
".X c #F58877",
"XX c #F0917C",
"oX c #DBA872",
"OX c #E69564",
"+X c #F5D379",
"@X c #FEF378",
"#X c #FDE973",
"$X c #FCDE58",
"%X c #325892",
"&X c #297184",
"*X c #3A66A6",
"=X c #717B85",
"-X c #647BA5",
";X c #586996",
":X c #798D94",
">X c #778A90",
",X c #4994A9",
"<X c #7289AE",
"1X c #4DA2B0",
"2X c #4D85C0",
"3X c #888989",
"4X c #83959A",
"5X c #8B9691",
"6X c #B58A8B",
"7X c #899CA2",
"8X c #869AA1",
"9X c #8B99B1",
"0X c #8DA2A7",
"qX c #99ABA9",
"wX c #98AAB6",
"eX c #ADB2AF",
"rX c #A4A89E",
"tX c #CF8C88",
"yX c #F48382",
"uX c #F58C86",
"iX c #F59289",
"pX c #F39A94",
"aX c #F7A09A",
"sX c #E9A893",
"dX c #CABBB9",
"fX c #E3ABA3",
"gX c #B3C2B7",
"hX c #95ABC7",
"jX c #B3BBC5",
"kX c #B7C7D5",
"lX c #C6C7C8",
"zX c #D5D1CD",
"xX c #CDD2D5",
"cX c #DAD9D9",
"vX c #C9CCD1",
"bX c #E3E0DC",
"nX c #D7DDE1",
"mX c #DDE2E6",
"MX c #E6E8EB",
"NX c #E5E7E9",
"BX c #ECEEF1",
"VX c #F0F2F5",
"CX c #F5F6FA",
"ZX c #FAFCFF",
"AX c #F7F9FC",
"SX c #EFF0F4",
"DX c #E2DFDB",
"FX c #CCC4BF",
/* pixels */
"                                                  uXyXQ.!.!.!.!.Q.yXiXaX                                                        ",
"                                          !.I.B.N.z.k.:.:.l.l.x.x.v.M.I.Q.iX                                                    ",
"                                      R.F.k.:.o.> 5 % 6 7 7 9 7 6 7 6 - g ) C.                                                  ",
"                                  aXP.z.l.> 6 } :.:.:.:.:.:.l.l.l.l.v.M.C.l.6 p.                                                ",
"                             XXXsXG.i.0 6 :.:.:.:.:.:.k.:.k.l.l.l.v.z.b.V.C.C.A.                                                ",
"                           XsXtXK.f.p.,.:.k.:.:.:.:.:.:.k.k.l.l.l.l.x.M.V.C.V.I.W                                               ",
"t.                         XtXr.G.6.: j.:.:.4 A MXBXMXf :.k.k.k.x.| u z 2.C.L.V.!.                                              ",
"t.$.                     X8X>X>XB 6.*.j.k.cXMXMXBXVXBXBX:.z v MXCXVXCXAXAXCXNXz U.E                                             ",
"0.#.z.aXaXaXaX          3X4X8X:XB 6.*.:.cXNXBXMXBXBXBXVXBXVXCXVXCXCXZXZXZXZXZXZXA S.                                            ",
"y.t.<.pXaXaXkX6XkXdXeXaXtX0X7X4XB 4.*.vXmXNXMXMXBXBXBXVXVXVXVXCXCXCXAXZXZXZXZXZXZXrX(                                           ",
"y.0.e.:.j.k.N.iXpXdXiX8XtX0X7X:XB i.3 vXcXNXMXMXBXBXBXBXVXVXCXCXCXCXAXZXZXZXZXZXZXZX=                                           ",
"t.].t.        / l.yXQ.x 3X7X7X:XB i.jXxXcXNXMXMXMXBXBXVXVXVXVXjXCXCXZXZXZXZXZXZXZXZXNX~.                                        ",
" Xt.t.            E 7XO 4X7X7X:XB *.jXxXmXNXMXBXBXBXBXBXVXCX%X&Xh CXAXZXZXZXZXZXZXZXZX:                                         ",
"  y.              4 4X=X:X7X7X5XM *.lXxXcXNXh &Xh BXBXBXBXjXj . j ;XAXAXAXZXZXZXZXZXZXl                                         ",
"        OX$Xg.tXsXaX:Xu.0X8X:X:Xx 4.vXxXcXmX,Xo BXh BXBXBX<X&X. . h CXAXAXZXZXZXZXZXZXZXd           6XaXaXE.iXiX                ",
"      }.'.!.0.Q.yXuX/ tX7X7X4X:Xm i.vXxXcXmX,X. . k BXBXBXSX1X. j h CXCXAXAXZXZXSXfXXXuXP.fXtXaXtX6Xy.uXyXQ.Q.f.Q.yX            ",
"    XXE.~.G.S.I.W.yXyX X8X7X4X:X6.4.vXxXcXmX,X. . &XBXBXBXSX-X2X&XCXBXG.iXuXtXE.XXH.f.Q.+X@XtX6XiXy.J.yXW.W.U.U.h.Y.Q.          ",
"    tXH.7.3.V.4.F.W.yXZ >X7X4X:X6.i.lXxXcXmX*X&Xk %XMXMXSXZX6.F.L.| XXG.#X+X+X@XOX+XJ.@X@X@Xy.y.y.yXQ.Q.W.Y.L.L.L.Y.T.yX        ",
"  j.J.r.<.<.g.V.g.V.!.yX>X>X4X>Xr.*.lXxXcXmXmX*X%XxX~.yXuXtX;X,.! 6.#X@X$X$X@X+XoX#XoXq.q.u.u.y.J.Q.Q.W.Y.L.L.F.B.F.U.!.        ",
"  a.].e.6.2.h.3.g.f.H.!.yXJ.=X=Xr.*.dXxXcX7XN.U.B.3.J.y.J.J.oX@X#X$X$X@XoX+X6.6.+X#X X6.f.r.r.Q.Q.!.!.W.I.L.F.F.P.B.I.W.uX      ",
"   X5.%.%.5.| | h.h.f.H.~.Q.Q.Q.K.P.l.~.K.uXE.E.W.4.J.J.J.r.j.-.G.u.u.u.u.r.g.h.6.#X@X4.q.q.r.W.W.W.W.W.R.L.F.F.N.i.L.U.uX      ",
"  tXJ.5./.%.3.| 4.6.f.Z.Z.H.~.A.| b.x.b.l.,.b.x.D.b..X.XyX,.yX.XQ.Q.W.q.q.q.q.q.q.q.q.q.q.U.U.U.U.U.R.R.W.Y.I.F.F.L.Y.).Z sX    ",
"  }.0.b u %.).3.4.3 3 b d z H.G.E.E.E.~.V.V.V.N.Y.Q.Q.yXT.x.v.!.R.R.U.Y.Y.Y.I.I.I.I.I.I.I.Y.Y.U.U.U.R.R.!.W.Y.I.I.U.hXhXz pX    ",
"  tXO $.(...%./.3.[._._._.G.G.G.K.J.K.H.g.p.g.z.m.N.F.U.W.Q.Q.yXU.I.L.L.L.L.F.F.F.F.F.L.L.I.Y.Y.Y.U.U.U.R.W.U.V.Y.hXhX<Xz iX    ",
"   XO O.O...#.%.^.).)._._.r.r.r.J.K.K.h.i.i.p.p.j.k.z.N.L.Y.W.!.!.U.F.F.F.F.F.F.F.F.F.F.F.F.F.L.I.I.Y.Y.Y.Y.s.L.-XBXkX;X<Xw.    ",
"  Z.X 5.+.+.@.%.).$.a ).4 r.r.FX|.>.r.4.o.=.*.p.z.j.k.m.=.B.I.Y.R.W.U.F.B.F.F.F.F.F.F.F.F.B.B.B.B.B.B.p.U.L.F.C.M BXhX-X9Xw.    ",
"  Z.@ > 9.u <.%.+.@.u `.0.r.r.5XeXoXX 3.X.o.*.*.p.j.j.j.k.m.*.N.L.Y.U.R.F.F.F.B.F.B.B.B.N.N.m.n.Y.I.F.N.M.z.M.M.b.9XmXb C.T.aX  ",
"  Z.n d (.<.<.i +.$.$.4 1.r.r.|.eX3.X : X.( o.=.*.p.j.j.k.m.m.N.N.N.L.Y.I.F.F.<XB.N.m.N.g.B.N.N.M.v.v.M.uXC.l.x.x.x.x.v.b.S.iX  ",
"  }.N g O.(.%.a ^. .#.t 1.e.r.<X}.@ d s > X.o.o.=.*.p.p.'. .M M z R.I.B.i.p.N.{ M.N.N.N.m.m.z.z.z.C.M.l.l.l.x.b.v.D.b.x.b.S..X  ",
"    y x O. .+.p  .O.O.9.1.r.e.1.y.X s 3 2 | 3.o.o.*.*.*.i +.B jXwX0X;XbXM k.k.k.z.k.k.l.l.l.l.l.l.l.l.l.x.v.b.-.` ` s.b.b.S..X  ",
"    ~ n +.i +. . . .<.O.1.1.].eXt.d 3 t 2 2.3.o.o.o.*.*.r '.'.kXNXeX9XeXlX2.:.:.:.j.:.:.l.l.l.l.l.l.l.x.v.x.b./ U ) L n.b.D.T.  ",
"  n 8 c z e.+.^. .Q  .O.e.8.].V e.3 2 % % % 3.3.4.o.*.*.*.i '.lXlXkXkXMXmX%X:.:.l.l.l.l.l.l.l.l.l.x.x.T.x.x.D.;.. 9 G &.b.S.T.  ",
"  n < w.: 9.+.2 2  .^.<./.e.].v g t & @ 6 O <.3.3.o.=.*.*.d '.l 9XxXMX5X<X-X:.x.x.x.x.v.x.l.x.x.l.x.x.x.,.b.` o H n.P ` n.S..X  ",
"  x qXZ > #.+.2 y p t <.b 8.e.eXt % @ J X + <.3.X.o.o.*.*.-.j.' -.:.l.l.l.x.v.n.n.v.x.x.x.x.x.l.x.x.x.j.' U u . L b.a.` ' S..X  ",
"  f z b : #.#.i p 3 ).<.8.8.t.l t # J . rXrX. <.3.3.o.*.*.-.j.:.l.l.x.v.b.' / &.s.n.n.x.x.x.l.l.-.;.] U K V D . _ b.v.' ;.A..X  ",
"  f w V 3 r $. .Q y a `.t.8.t.f < @ X 3XV S m <.3.3.3.o.=.*.-.s.z.n.v.s.U I / d.s.s.s.s.s.' ] ^ U L G Q S zX6X. [ x.x.n.c.A..X  ",
"  l u A 3 R .. . .^.| ^.).e.8.t # J Z 3Xw l # <.<.<.3.4.o.i.i.s.n.n.-.U H ! ) / ^ / U U I L J H G Z Z Z DXlXZ I l.b.x.b.c.A.XX  ",
"  x z 4X3  .7 G G ^.| y ).[.8.t % % w c w eX# <.<.<.3.3.5.i.i.d.s.c.^ 7 9 9 9 9 H 9 H 9 9 m Z Z Z Z bXbXcXeXm ^ x.x.x.b.b.T..X  ",
"  a m C 3 . ..p i a | f [.[.8.3 # X 5Xv ; m + 0 <.<.<.3.5.5.i.a.d.[ G X = 1 u v D V V Z Z Z Z bXbXbXcXzXeXzXt.[ x.b.x.b.b.T..XN ",
"  x eXz 3 . ..$ & O 5 p [.{.8.2 9 eXc 4 # c 4 o Q <.<.<.5.5.5.a.d.;.x._ & 1 w z D V S Z zXcXcXcXzXlXeXMXbXlX[ >.x.x.x.b.D.T..XN ",
"  f qXz t X .... .%.O ).).{.x < K m c 4 v m V . Q <.<.O.3.~ / o.=.[ x.l._ < 4 v c rXdXlXlXdXrXSXBXNXDXcXzX[ _ x.x.v.v.b.D.T.XXN ",
"  f 7Xm 3 X ..+.$.@.+.).).).x < J b b 1 t c z 5 Q Q P ~ ~ ~ ..^ ` ;.x.x.x.&.[ 4 z A zXMXNXbXbXcXcXcXcXfX[ [ -.x.b.b.b.b.S.T.XXN ",
"  f xX=X2 # W #.$.$.r %.).^.x < H V m 1 ; m v 7XR R W W W ! ~ ) ^ ;.x.x.x.x.-.] [ dXlXzXcXcXcXcXzX[ [ [ _ ;.x.x.b.b.b.b.S.T.XXN ",
"  f :X3X- # u #.$.$.1.i $.7 f < * =Xw < = w.l N R Y Y T W E ~ ) ^ -.v.v.v.x.x.x.&.] [ [ [ [ [ _ [ [ _ _ ;.;.x.b.b.b.b.b.-.c.g.C ",
"  f <X>X& O * 7 /.$.1.2.p r f 2 : >X4 rXeXS Q Y r R Y T T E ! ) / s.b.v.v.x.v.n.x.-.{ ] ^ ] ] ^ ] ' -.[ ;.v.b.b.b.-.-.-.-.d.H.C ",
"  x :X0X# X X 8.7 p 1.2.2.2.f < < S l c 1 X X.3.4 Y Y P T E ! ) ^ -.n.n.v.b.b.v.v.n.n.-.] _ _ _ ' _ _ ;.b.b.b.-.;.&.&.&.&.a.C S ",
"  x eXB @ . < X g 7 r 0.2.2.f 2 - x l 1 gXqX .8 4 Y Y Y T ! ~ ( / _ s.c.V.n.b.v.b.M.b.n.s.;.&.&.&.;.n.b.b.b.-.&.` / / ^ ^ a.n C ",
"  x g wXX . < X O K r <.8.2.f = e c v 5 < 0X-XjXv Y H P P E ~ ( ^ &.d.s.c.n.n.n.n.b.b.b.n.c.c.c.c.n.n.b.b.;._ / ) ) ) ) o.2.v v ",
"  n 2.vXX . . X X :XM 0.Q Q f 2 T Z =X4 x >XB 4XqXY H H P E ~ ) / { d.d.s.s.c.c.c.n.n.n.n.n.n.n.n.n.n.n.;.^ ) ! ! ! ~ X.6.w w u ",
"  x h.x . . . @ O v %X6X6Xr 3 2 P :X0X4 X 7X7X# l Y H H P T E ~ / / { { &.' [ [ [ [ -.c.c.n.n.c.c.-.;.' / ! E E E W X.( q q w u ",
"    x x O . . . @ 4 8.;Xe.p r 2 T eXd 4 n 0XA . eXe H G G T E ~ ) / / ^ / / ` ` ` ` ` ' _ &.&.&.` ` / U ! ~ W ~ | X.. # 1 q w   ",
"    x 1 o . . . . 6 ( o.6X+.| 3 8 qX3Xl - qXl 3 . T H H G P K E ~ U ) ) ) ) U U U U U U U U U U I I P E ~ ( X.I X O X # 1 1 q   ",
"    N # . . . . . . .   ^ 0.| 3 : : V =Xl 5 < x qXf H G G J K K L L L L I I I I I K K K K K J K K T E ( X.P # O . o X # 1 1 q   ",
"    q . . . . . . . @       &.t : T wXc v qX< x A f G G G G G J K K K K K K K K K K J K K K T E W ( ( X X X @ X . X O $ 1 1 q   ",
"      o . . . . . X           4 , E 4X5X<X:Xq >Xb t & G G G G G J J K J J K K J K K K P E ~ X.| X X . . X X X . o O X - ; 1     ",
"                              - 2 : : qXV N Z eXd t O G G G G J G J J J K K K L T E ( 4.        . X X . o . . . X X X % - 1     ",
"                                3 : ~ : gX0XeX| 3 2 X X K P K K J K K K T E ~ (                 X X X X . . . X O . X % 1 q     ",
"                                t : > ) % + X.d 3 # . O @ ! E E E E ~                           X O X X X X X O X . % - 1       ",
"                                - 3 > > X.o.s 3 3 O . O @ # #                                     . X . . X O . . X % -         ",
"                                  t , > > s 3 2 & . . O O # #                                       . . . . . . . # #           ",
"                                  % t 3 3 3 3 $ o . X O O @                                           . . . . . @               ",
"                                    % - 2 2 & . . X X X O                                                                       ",
"                                    $ . . . . . . o X &                                                                         ",
"                                        X . . .                                                                                 "
};
