/* XPM */
static char *_3ef8561ba65452df8489e0eab4ae66bhunNljJoVk69OzMu[] = {
/* columns rows colors chars-per-pixel */
"64 64 143 2 ",
"   c None",
".  c #001429",
"X  c #011532",
"o  c #02163B",
"O  c #00183B",
"+  c #051644",
"@  c #011843",
"#  c #05164B",
"$  c #09154C",
"%  c #02194B",
"&  c #061752",
"*  c #0A1553",
"=  c #071855",
"-  c #0A175C",
";  c #09185A",
":  c #012055",
">  c #02205B",
",  c #0C1763",
"<  c #0F176A",
"1  c #10176D",
"2  c #121774",
"3  c #121873",
"4  c #131779",
"5  c #052164",
"6  c #09206C",
"7  c #0C2073",
"8  c #042C75",
"9  c #0F207C",
"0  c #01317D",
"q  c #122084",
"w  c #15208B",
"e  c #033283",
"r  c #06328C",
"t  c #09318D",
"y  c #1A2095",
"u  c #1D209C",
"i  c #0B3193",
"p  c #063D94",
"a  c #0F319A",
"s  c #083D9A",
"d  c #11319C",
"f  c #1F20A0",
"g  c #1431A4",
"h  c #1931AC",
"j  c #1D31B3",
"k  c #1F31B8",
"l  c #2020A1",
"z  c #2031B7",
"x  c #2231BC",
"c  c #0C52AE",
"v  c #165DAA",
"b  c #195DAE",
"n  c #0E52B0",
"m  c #1C5DB4",
"M  c #1F5DB9",
"N  c #225DBC",
"B  c #1A67B6",
"V  c #1C68B7",
"C  c #1F67BD",
"Z  c #1E68BA",
"A  c #2631C1",
"S  c #2A31C5",
"D  c #2D31CA",
"F  c #255CC1",
"G  c #285CC5",
"H  c #2D5CCC",
"J  c #305DCF",
"K  c #2F5DD0",
"L  c #335DD4",
"P  c #365DD8",
"I  c #3A5DDD",
"U  c #267ACA",
"Y  c #3E5DE0",
"T  c #445DE5",
"R  c #485DE7",
"E  c #485DE8",
"W  c #3694D9",
"Q  c #3995DA",
"!  c #3DA3D9",
"~  c #43A3DC",
"^  c #48A3DF",
"/  c #44AADE",
"(  c #47A3E1",
")  c #4BA3E3",
"_  c #49AAE1",
"`  c #50A3E7",
"'  c #53A3EA",
"]  c #59A3EE",
"[  c #4EB4E6",
"{  c #52B6E7",
"}  c #53B9E6",
"|  c #55BCEB",
" . c #59BFEB",
".. c #5DA3F1",
"X. c #63A3F3",
"o. c #6BA3F6",
"O. c #5BC1EA",
"+. c #4FC5F0",
"@. c #52C5F1",
"#. c #5CC6F4",
"$. c #56C9F2",
"%. c #54C8F1",
"&. c #5DC9F3",
"*. c #5ACCF2",
"=. c #5FCAF4",
"-. c #5ECCF3",
";. c #61C5F6",
":. c #60C6F6",
">. c #62C6F6",
",. c #65C5F7",
"<. c #64C6F7",
"1. c #62C6F6",
"2. c #66C6F8",
"3. c #67C7F9",
"4. c #66C6F8",
"5. c #69C6F9",
"6. c #6AC7F9",
"7. c #6DC6FA",
"8. c #6BC6F9",
"9. c #71C6FA",
"0. c #71C6FB",
"q. c #76C6FB",
"w. c #76C6FC",
"e. c #74C6FB",
"r. c #7AC6FC",
"t. c #7BC6FC",
"y. c #7EC5FD",
"u. c #7EC6FD",
"i. c #7CC6FD",
"p. c #61D1F3",
"a. c #63D2F4",
"s. c #66D2F5",
"d. c #67D6F4",
"f. c #63D2F5",
"g. c #68D6F6",
"h. c #69D6F6",
"j. c #6BD7F6",
"k. c #6AD6F5",
"l. c #6DDAF6",
"z. c #70DCF6",
"x. c #80C5FD",
"c. c #80C6FD",
"v. c #81C6FD",
/* pixels */
"    g.s.=.#.#.#.:.:.<.2.2.6.7.9.q.r.y.x.x.y.r.w.9.7.6.2.<.<.:.#.#.#.#.$.$.@.@.@.@.@.+.@.@.@.@.@.@.@.@.@.@.@.@.@.@.@.@.$.p.d.    ",
"    | { _ ^ ) ) ) ) ` ` ] ] ..X.X.o.o.o.o.o.o.X.X...] ] ' ` ) ) ) ( ^ ~ ~ ! ! ! ! ! ! ! ! ! ! ! ! ! ! ! ! ! ! ! ! ! ! / [ |     ",
"g.| W U C M M N F G H H L P I I T R R E E R R T Y I P L J H G F N M M m m b b v v v v v v v v v v v v v v v v v v v b B U W | g.",
"a.[ U n s t i i a g g h j z x A S D D D D D D S A x z j h g g d i i t r r e e 0 0 0 0 0 0 0 0 0 0 0 0 0 0 0 0 0 0 0 e p c U { s.",
"*./ V p 8 5 5 6 6 7 9 q w w y y u u f f f f u u u y w w q 9 7 7 6 5 5 > > > : : : : : : : : : : : : : : = : : : : > > 8 p Z _ &.",
"$.~ b e 5 % % # $ = - , , < < 3 2 2 4 4 4 4 2 2 3 1 < , - - = & # @ @ @ O O O o o o o o o o o o o o o o o o o o O @ % 5 r m ^ #.",
"$.~ v 0 > @ o o o o o + + # $ $ * * = = = = * * $ $ # + + o o o X X X X X X X X X X X . . . . . X X . . . . . X X o @ 5 t m ^ #.",
"$.~ v 0 : O X . . . X X X X X o o o o o o o o o o X X X X X . . . . . . . . . . . . . . . . . . . . . . . . . . . X @ , i M ^ #.",
"$.~ v 0 : o X . . . . . . . . . . X X X X X X . . . . . . . . . . . . . . . . . . . . . . . . . . . . . . . . . . X # 6 i N ) #.",
"$.~ v 0 : o X . . . . . . . . . . . . . . . . . . . . . . . . . . . . . . . . . . . . . . . . . . . . . . . . . . o $ 6 a F ) #.",
"$.~ v 0 : o X . . . . . . . . . . . . . . . . . . . . . . . . . . . . . . . . . . . . . . . . . . . . . . . . . . o = 7 g G ) :.",
"$.~ v 0 : o X . . . . . . . . . . . . . . . . . . . . . . . . . . . . . . . . . . . . . . . . . . . . . . . . . X o - 9 g H ` :.",
"$.~ v 0 : o X . . . . . . . . . . . . . . . . . . . . . . . . . . . . . . . . . . . . . . . . . . . . . . . . . X + - q h H ` <.",
"$.! v 0 : o X . . . . . . . . . . . . . . . . . . . . . . . . . . . . . . . . . . . . . . . . . . . . . . . . . X + , q j L ] 2.",
"%.! v 0 : o . . . . . . . . . . . . . . . . . . . . . . . . . . . . . . . . . . . . . . . . . . . . . . . . . . X # < w k P ] 6.",
"%.! v 0 : O X . . . . . . . . . . . . . . . . . . . . . . . . . . . . . . . . . . . . . . . . . . . . . . . . . X $ 1 y x I ..7.",
"%.! v 0 : o X . . . . . . . . . . . . . . . . . . . . . . . . . . . . . . . . . . . . . . . . . . . . . . . . . o $ 3 y A I ..9.",
"%.! v 0 : o X . . . . . . . . . . . . . . . . . . . . . . . . . . . . . . . . . . . . . . . . . . . . . . . . . o * 2 u S T X.w.",
"%.! v 0 : o X . . . . . . . . . . . . . . . . . . . . . . . . . . . . . . . . . . . . . . . . . . . . . . . . . o * 2 u D R o.r.",
"%.! v 0 : o X . . . . . . . . . . . . . . . . . . . . . . . . . . . . . . . . . . . . . . . . . . . . . . . . . o * 4 f D R o.y.",
"%.! v 0 : o X . . . . . . . . . . . . . . . . . . . . . . . . . . . . . . . . . . . . . . . . . . . . . . . . . o = 4 f D E o.x.",
"%.! v 0 : o X . . . . . . . . . . . . . . . . . . . . . . . . . . . . . . . . . . . . . . . . . . . . . . . . . o = 4 f D E o.x.",
"$.! v 0 : o X . . . . . . . . . . . . . . . . . . . . . . . . . . . . . . . . . . . . . . . . . . . . . . . . X o * 4 u D R o.y.",
"$.~ v 0 : o X . . . . . . . . . . . . . . . . . . . . . . . . . . . . . . . . . . . . . . . . . . . . . . . . X o * 2 u D R o.r.",
"$.~ b e : o X . . . . . . . . . . . . . . . . . . . . . . . . . . . . . . . . . . . . . . . . . . . . . . . . . o * 2 u S T X.q.",
"#.~ b e : O X . . . . . . . . . . . . . . . . . . . . . . . . . . . . . . . . . . . . . . . . . . . . . . . . . o $ 3 y A Y X.9.",
"#.^ b r > O X . . . . . . . . . . . . . . . . . . . . . . . . . . . . . . . . . . . . . . . . . . . . . . . . . X $ 1 y x I ..7.",
"#.^ m r > @ X . . . . . . . . . . . . . . . . . . . . . . . . . . . . . . . . . . . . . . . . . . . . . . . . . X $ < w z P ] 6.",
"#.^ M t 5 @ X . . . . . . . . . . . . . . . . . . . . . . . . . . . . . . . . . . . . . . . . . . . . . . . . . X + , w j L ] 6.",
"#.) N i 5 % X . . . . . . . . . . . . . . . . . . . . . . . . . . . . . . . . . . . . . . . . . . . . . . . . . X + - q h K ` <.",
"#.) N i 6 $ o . . . . . . . . . . . . . . . . . . . . . . . . . . . . . . . . . . . . . . . . . . . . . . . . . X o ; 9 g H ` :.",
":.) F d 7 & o . . . . . . . . . . . . . . . . . . . . . . . . . . . . . . . . . . . . . . . . . . . . . . . . . . o = 7 g G ) :.",
":.) G g 7 = o . . . . . . . . . . . . . . . . . . . . . . . . . . . . . . . . . . . . . . . . . . . . . . . . . . o & 7 a F ) #.",
"<.` H g 9 - + X . . . . . . . . . . . . . . . . . . . . . . . . . . . . . . . . . . . . . . . . . . . . . . . . . X # 6 i N ) #.",
"2.' J h q - + X . . . . . . . . . . . . . . . . . . . . . . . . . . . . . . . . . . . . . . . . . . . . . . . . . X @ 5 i N ^ #.",
"6.] L j w , + X . . . . . . . . . . . . . . . . . . . . . . . . . . . . . . . . . . . . . . . . . . . . . . . . . X @ 5 t M ^ #.",
"7.] P z w < $ X . . . . . . . . . . . . . . . . . . . . . . . . . . . . . . . . . . . . . . . . . . . . . . . . . X @ > r m ^ #.",
"7...I x y 1 $ X . . . . . . . . . . . . . . . . . . . . . . . . . . . . . . . . . . . . . . . . . . . . . . . . . X O > r m ~ #.",
"9.X.Y A y 3 $ o . . . . . . . . . . . . . . . . . . . . . . . . . . . . . . . . . . . . . . . . . . . . . . . . . X O > e b ~ $.",
"q.X.T S u 2 * o . . . . . . . . . . . . . . . . . . . . . . . . . . . . . . . . . . . . . . . . . . . . . . . . . X O : e b ~ $.",
"r.o.R D u 2 * o X . . . . . . . . . . . . . . . . . . . . . . . . . . . . . . . . . . . . . . . . . . . . . . . . X O : 0 v ~ $.",
"y.o.R D f 4 = o X . . . . . . . . . . . . . . . . . . . . . . . . . . . . . . . . . . . . . . . . . . . . . . . . X O : 0 v ! @.",
"x.o.E D f 4 = o X . . . . . . . . . . . . . . . . . . . . . . . . . . . . . . . . . . . . . . . . . . . . . . . . X O : 0 v ! %.",
"x.o.E D f 4 = o . . . . . . . . . . . . . . . . . . . . . . . . . . . . . . . . . . . . . . . . . . . . . . . . . X O : 0 v ! %.",
"y.o.R D f 4 = o . . . . . . . . . . . . . . . . . . . . . . . . . . . . . . . . . . . . . . . . . . . . . . . . . X O : 0 v ! %.",
"r.o.R D u 4 * o . . . . . . . . . . . . . . . . . . . . . . . . . . . . . . . . . . . . . . . . . . . . . . . . . X O : 0 v ! %.",
"q.X.T S u 2 * o . . . . . . . . . . . . . . . . . . . . . . . . . . . . . . . . . . . . . . . . . . . . . . . . . X o : 0 v ! %.",
"9.X.Y A y 3 $ o . . . . . . . . . . . . . . . . . . . . . . . . . . . . . . . . . . . . . . . . . . . . . . . . . X o : 0 v ! %.",
"7...I x y < $ X . . . . . . . . . . . . . . . . . . . . . . . . . . . . . . . . . . . . . . . . . . . . . . . . . X o : 0 v ! %.",
"6.] P k w < $ X . . . . . . . . . . . . . . . . . . . . . . . . . . . . . . . . . . . . . . . . . . . . . . . . . X o : 0 v ! %.",
"2.' L j q , + X . . . . . . . . . . . . . . . . . . . . . . . . . . . . . . . . . . . . . . . . . . . . . . . . . X o : 0 v ! %.",
"2.` H h q - + X . . . . . . . . . . . . . . . . . . . . . . . . . . . . . . . . . . . . . . . . . . . . . . . . . X o : 0 v ! %.",
"<.` H g 9 - + X . . . . . . . . . . . . . . . . . . . . . . . . . . . . . . . . . . . . . . . . . . . . . . . . . X o : 0 v ! %.",
":.) G d 7 = o . . . . . . . . . . . . . . . . . . . . . . . . . . . . . . . . . . . . . . . . . . . . . . . . . . X o : 0 v ! %.",
"#.) F d 7 & o . . . . . . . . . . . . . . . . . . . . . . . . . . . . . . . . . . . . . . . . . . . . . . . . . . X O : 0 v ! $.",
"#.) N i 6 $ o . . . . . . . . . . . . . . . . . . . . . . . . . . . . . . . . . . X X X X X X . . . . . . . . . . X o : 0 v ! $.",
"#.) N t 5 % X . . . . . . . . . . . . . . . . . . . . . . . . . . . X X X X X o o o o o o o o o o X X X X X . . . X o : 0 v ! $.",
"#.^ M t 5 % o X X . . . . . . . . . . . . . . . . X X X X X X o o o + + + # $ $ * * = = = = * * $ $ # + + o o o X o @ > e v ! $.",
"#.^ m r 5 % @ O o o o o o o o o o o o o o o o o o O O O @ @ % $ & = - , , < < 3 2 2 4 4 4 4 2 3 3 < , , - - = $ # % % 5 e b ~ $.",
"-._ Z p 8 > > : : : : : : : : : : : : : : : : : : : > > > 5 5 6 7 7 9 q w w y y u u l l l f u u y y w q q 9 7 6 6 5 5 8 p V / -.",
"g.{ U c p e e 0 0 0 0 0 0 0 0 0 0 0 0 0 0 0 0 0 0 0 e e r r i i d g g h j k x A S D D D D D D S A x k j h g d d i i t s n U } g.",
"l. .W U B b v v v v v v v v v v v v v v v v v v v v b m m M M N F G H H L P I Y T R R E E R R T Y I P L H H G F N M M C U Q O.z.",
"    | [ / ! ! ! ! ! ! ! ! ! ! ! ! ! ! ! ! ! ! ! ! ! ! ! ~ ^ ( ) ) ) ` ` ] ] ..X.X.o.o.o.o.o.X.X.....] ] ` ` ) ) ) ( ( _ {  .    ",
"    g.a.$.+.+.+.@.@.+.+.+.+.+.+.+.+.@.@.@.@.@.@.@.@.@.@.$.#.#.#.#.#.:.2.2.6.7.9.w.y.y.x.x.y.r.q.9.7.6.2.<.:.:.#.#.#.#.=.s.j.    "
};
